<svg xmlns="http://www.w3.org/2000/svg" viewBox="0 0 96 96" fill="none" class="css-37ul6t"><path opacity="0.3" d="M76 10l4 4 4-4-4-4-4 4zM3 43l3 3 3-3-3-3-3 3zM88 59l3 3 3-3-3-3-3 3z" fill="#AEB4BC"></path><path fill-rule="evenodd" clip-rule="evenodd" d="M60 8H24v72h56V28L60 8z" fill="url(#document_svg__paint0_linear_26712_55128)"></path><path d="M80 28H60V8l20 20z" fill="url(#document_svg__paint1_linear_26712_55128)"></path><path d="M34 24h17v4H34v-4z" fill="#fff"></path><path d="M70 36h-4v4h4v-4z" fill="url(#document_svg__paint2_linear_26712_55128)"></path><path d="M34 36h28v4H34v-4z" fill="url(#document_svg__paint3_linear_26712_55128)"></path><path d="M34 45h28v4H34v-4z" fill="url(#document_svg__paint4_linear_26712_55128)"></path><path d="M34 54h28v4H34v-4z" fill="url(#document_svg__paint5_linear_26712_55128)"></path><path d="M34 63h28v4H34v-4z" fill="url(#document_svg__paint6_linear_26712_55128)"></path><path d="M66 45h4v4h-4v-4z" fill="url(#document_svg__paint7_linear_26712_55128)"></path><path d="M70 54h-4v4h4v-4z" fill="url(#document_svg__paint8_linear_26712_55128)"></path><path d="M66 63h4v4h-4v-4z" fill="url(#document_svg__paint9_linear_26712_55128)"></path><path opacity="0.3" d="M16 88V16h8v64h48v8H16z" fill="#AEB4BC"></path><defs><linearGradient id="document_svg__paint0_linear_26712_55128" x1="52" y1="80" x2="52" y2="8" gradientUnits="userSpaceOnUse"><stop stop-color="#F0B90B"></stop><stop offset="1" stop-color="#F8D33A"></stop></linearGradient><linearGradient id="document_svg__paint1_linear_26712_55128" x1="70" y1="8" x2="70" y2="28" gradientUnits="userSpaceOnUse"><stop stop-color="#929AA5"></stop><stop offset="1" stop-color="#76808F"></stop></linearGradient><linearGradient id="document_svg__paint2_linear_26712_55128" x1="52" y1="36" x2="52" y2="67" gradientUnits="userSpaceOnUse"><stop stop-color="#929AA5"></stop><stop offset="1" stop-color="#76808F"></stop></linearGradient><linearGradient id="document_svg__paint3_linear_26712_55128" x1="52" y1="36" x2="52" y2="67" gradientUnits="userSpaceOnUse"><stop stop-color="#929AA5"></stop><stop offset="1" stop-color="#76808F"></stop></linearGradient><linearGradient id="document_svg__paint4_linear_26712_55128" x1="52" y1="36" x2="52" y2="67" gradientUnits="userSpaceOnUse"><stop stop-color="#929AA5"></stop><stop offset="1" stop-color="#76808F"></stop></linearGradient><linearGradient id="document_svg__paint5_linear_26712_55128" x1="52" y1="36" x2="52" y2="67" gradientUnits="userSpaceOnUse"><stop stop-color="#929AA5"></stop><stop offset="1" stop-color="#76808F"></stop></linearGradient><linearGradient id="document_svg__paint6_linear_26712_55128" x1="52" y1="36" x2="52" y2="67" gradientUnits="userSpaceOnUse"><stop stop-color="#929AA5"></stop><stop offset="1" stop-color="#76808F"></stop></linearGradient><linearGradient id="document_svg__paint7_linear_26712_55128" x1="52" y1="36" x2="52" y2="67" gradientUnits="userSpaceOnUse"><stop stop-color="#929AA5"></stop><stop offset="1" stop-color="#76808F"></stop></linearGradient><linearGradient id="document_svg__paint8_linear_26712_55128" x1="52" y1="36" x2="52" y2="67" gradientUnits="userSpaceOnUse"><stop stop-color="#929AA5"></stop><stop offset="1" stop-color="#76808F"></stop></linearGradient><linearGradient id="document_svg__paint9_linear_26712_55128" x1="52" y1="36" x2="52" y2="67" gradientUnits="userSpaceOnUse"><stop stop-color="#929AA5"></stop><stop offset="1" stop-color="#76808F"></stop></linearGradient></defs></svg>