<svg xmlns="http://www.w3.org/2000/svg" viewBox="0 0 96 96" fill="none" class="css-37ul6t"><path opacity="0.3" fill-rule="evenodd" clip-rule="evenodd" d="M84 84.001H12v-42h72v42zm-19-8.5l1.5-1.5 1.5 1.5-1.5 1.5-1.5-1.5z" fill="#AEB4BC"></path><path opacity="0.6" d="M80 30.001l2-2 2 2-2 2-2-2z" fill="#76808F"></path><circle r="19.245" transform="matrix(1 0 0 -1 48 27.245)" fill="#F8D33A"></circle><circle r="13.936" transform="matrix(1 0 0 -1 48 27.244)" fill="url(#receive_crypto_svg__paint0_linear_965_15096)"></circle><path d="M40.7 27.245l7.3 7.3 7.3-7.3-7.3-7.3-7.3 7.3z" fill="#F0B90B"></path><circle r="10" transform="matrix(1 0 0 -1 77.875 64)" fill="#F8D33A"></circle><circle r="7.273" transform="matrix(1 0 0 -1 77.875 64)" fill="url(#receive_crypto_svg__paint1_linear_965_15096)"></circle><path d="M74.239 64l3.636 3.636L81.51 64l-3.636-3.636L74.239 64z" fill="#F0B90B"></path><circle r="12" transform="matrix(1 0 0 -1 28 76)" fill="#F8D33A"></circle><circle r="8.727" transform="matrix(1 0 0 -1 28 76)" fill="url(#receive_crypto_svg__paint2_linear_965_15096)"></circle><path d="M23.636 76L28 80.364 32.364 76 28 71.636 23.636 76z" fill="#F0B90B"></path><path opacity="0.6" d="M17 10.001l-3 3 3 3 3-3-3-3z" fill="#76808F"></path><path d="M27.21 49.968h41.581l-20.79 20.79-20.791-20.79z" fill="#76808F"></path><defs><linearGradient id="receive_crypto_svg__paint0_linear_965_15096" x1="13.936" y1="0" x2="13.936" y2="27.872" gradientUnits="userSpaceOnUse"><stop stop-color="#F0B90B"></stop><stop offset="1" stop-color="#F8D33A"></stop></linearGradient><linearGradient id="receive_crypto_svg__paint1_linear_965_15096" x1="7.273" y1="0" x2="7.273" y2="14.546" gradientUnits="userSpaceOnUse"><stop stop-color="#F0B90B"></stop><stop offset="1" stop-color="#F8D33A"></stop></linearGradient><linearGradient id="receive_crypto_svg__paint2_linear_965_15096" x1="8.727" y1="0" x2="8.727" y2="17.454" gradientUnits="userSpaceOnUse"><stop stop-color="#F0B90B"></stop><stop offset="1" stop-color="#F8D33A"></stop></linearGradient></defs></svg>