<svg xmlns="http://www.w3.org/2000/svg" viewBox="0 0 96 96" fill="none" class="css-37ul6t"><path opacity="0.6" d="M67 49a9 9 0 110 18 9 9 0 010-18zM29 10a9 9 0 110 18 9 9 0 010-18z" fill="#76808F"></path><path d="M57 70h3.842L67 76.094 73.158 70H77c4.418 0 8 3.544 8 7.917V85H49v-7.083C49 73.544 52.582 70 57 70z" fill="url(#p2p-light_svg__paint0_linear_28650_26019)"></path><path d="M19 31h3.842L29 37.094 35.158 31H39c4.418 0 8 3.544 8 7.917V46H11v-7.083C11 34.544 14.582 31 19 31z" fill="url(#p2p-light_svg__paint1_linear_28650_26019)"></path><circle r="18" transform="matrix(1 0 0 -1 29 67)" fill="#F8D33A"></circle><circle transform="matrix(1 0 0 -1 29 67)" fill="url(#p2p-light_svg__paint2_linear_28650_26019)" r="12.667"></circle><path d="M22.52 67L29 73.48 35.48 67 29 60.52 22.52 67z" fill="#F0B90B"></path><circle r="18" transform="matrix(1 0 0 -1 67 28)" fill="#F8D33A"></circle><circle transform="matrix(1 0 0 -1 67 28)" fill="url(#p2p-light_svg__paint3_linear_28650_26019)" r="12.667"></circle><path d="M60.52 28L67 34.48 73.48 28 67 21.52 60.52 28z" fill="#F0B90B"></path><path opacity="0.3" d="M86 67l2-2 2 2-2 2-2-2zM42 13l3-3 3 3-3 3-3-3zM4 53l2-2 2 2-2 2-2-2z" fill="#76808F"></path><defs><linearGradient id="p2p-light_svg__paint0_linear_28650_26019" x1="67" y1="70" x2="67" y2="85" gradientUnits="userSpaceOnUse"><stop stop-color="#929AA5"></stop><stop offset="1" stop-color="#76808F"></stop></linearGradient><linearGradient id="p2p-light_svg__paint1_linear_28650_26019" x1="29" y1="31" x2="29" y2="46" gradientUnits="userSpaceOnUse"><stop stop-color="#929AA5"></stop><stop offset="1" stop-color="#76808F"></stop></linearGradient><linearGradient id="p2p-light_svg__paint2_linear_28650_26019" x1="12.667" y1="0" x2="12.667" y2="25.333" gradientUnits="userSpaceOnUse"><stop stop-color="#F0B90B"></stop><stop offset="1" stop-color="#F8D33A"></stop></linearGradient><linearGradient id="p2p-light_svg__paint3_linear_28650_26019" x1="12.667" y1="0" x2="12.667" y2="25.333" gradientUnits="userSpaceOnUse"><stop stop-color="#F0B90B"></stop><stop offset="1" stop-color="#F8D33A"></stop></linearGradient></defs></svg>