<svg xmlns="http://www.w3.org/2000/svg" viewBox="0 0 96 96" fill="none" class="css-37ul6t"><circle r="20" transform="matrix(1 0 0 -1 48 48)" fill="#F8D33A"></circle><circle r="13.684" transform="matrix(1 0 0 -1 48 48.002)" fill="url(#recover-deposit_svg__paint0_linear_26712_54999)"></circle><path d="M40.632 48L48 55.37 55.368 48 48 40.632 40.632 48z" fill="#F0B90B"></path><path opacity="0.3" d="M48 8c22.091 0 40 17.909 40 40S70.091 88 48 88v-8c17.673 0 32-14.327 32-32 0-17.673-14.327-32-32-32V8zM82 11l3 3 3-3-3-3-3 3zM39 76l2 2 2-2-2-2-2 2zM8 25h3v-3H8v3z" fill="#AEB4BC"></path><path d="M8 48C8 25.909 25.909 8 48 8v8c-17.673 0-32 14.327-32 32 0 8.838 3.577 16.832 9.373 22.627L31 65v17H14l5.716-5.716C12.48 69.05 8 59.044 8 48z" fill="url(#recover-deposit_svg__paint1_linear_26712_54999)"></path><defs><linearGradient id="recover-deposit_svg__paint0_linear_26712_54999" x1="13.684" y1="0" x2="13.684" y2="27.368" gradientUnits="userSpaceOnUse"><stop stop-color="#F0B90B"></stop><stop offset="1" stop-color="#F8D33A"></stop></linearGradient><linearGradient id="recover-deposit_svg__paint1_linear_26712_54999" x1="28" y1="8" x2="28" y2="82" gradientUnits="userSpaceOnUse"><stop stop-color="#929AA5"></stop><stop offset="1" stop-color="#76808F"></stop></linearGradient></defs></svg>