<svg width="1200" height="196" viewBox="0 0 1200 196" fill="none" xmlns="http://www.w3.org/2000/svg">
<rect width="1200" height="196" rx="8" fill="#0D1318"/>
<mask id="mask0_3_12" style="mask-type:alpha" maskUnits="userSpaceOnUse" x="0" y="0" width="1200" height="196">
<rect width="1200" height="196" rx="8" fill="#161E1A"/>
</mask>
<g mask="url(#mask0_3_12)">
<path d="M243.362 76L-118 195.985" stroke="url(#paint0_linear_3_12)" stroke-width="0.75" stroke-miterlimit="10"/>
<path d="M332.528 76L61.507 195.985" stroke="url(#paint1_linear_3_12)" stroke-width="0.75" stroke-miterlimit="10"/>
<path d="M421.695 76L241.014 195.985" stroke="url(#paint2_linear_3_12)" stroke-width="0.75" stroke-miterlimit="10"/>
<path d="M510.861 76L420.52 195.985" stroke="url(#paint3_linear_3_12)" stroke-width="0.75" stroke-miterlimit="10"/>
<path d="M600.016 76V195.985" stroke="url(#paint4_linear_3_12)" stroke-width="0.75" stroke-miterlimit="10"/>
<path d="M689.183 76L779.523 195.985" stroke="url(#paint5_linear_3_12)" stroke-width="0.75" stroke-miterlimit="10"/>
<path d="M778.349 76L959.03 195.985" stroke="url(#paint6_linear_3_12)" stroke-width="0.75" stroke-miterlimit="10"/>
<path d="M867.515 76L1138.54 195.985" stroke="url(#paint7_linear_3_12)" stroke-width="0.75" stroke-miterlimit="10"/>
<path d="M956.681 76L1318.04 195.985" stroke="url(#paint8_linear_3_12)" stroke-width="0.75" stroke-miterlimit="10"/>
<path opacity="0.6" d="M63.2686 135.79H1136.77" stroke="#507365" stroke-width="0.75" stroke-miterlimit="10"/>
<path opacity="0.2" d="M171.465 99.8688H1028.58" stroke="#507365" stroke-width="0.75" stroke-miterlimit="10"/>
<path d="M29.9963 196.553C35.7232 203.652 45.0128 208.405 57.0804 209.48L63.7298 220.998C49.8809 219.702 39.7947 213.521 34.6182 204.558C34.6182 204.558 34.6182 204.558 34.6182 204.558L29.9963 196.553Z" fill="white" stroke="black" stroke-width="0.35"/>
<path d="M137.753 178.984L131.101 167.463C136.445 156.381 137.065 145.815 133.735 137.185L138.354 145.185C143.602 154.272 143.824 166.255 137.753 178.984Z" fill="#458F2C" stroke="black" stroke-width="0.35"/>
<path d="M107.064 210.502L100.375 198.917C113.521 191.394 124.715 180.465 130.918 167.844L137.57 179.367C131.426 192.002 120.235 202.965 107.064 210.502Z" fill="#6FCF4E" stroke="black" stroke-width="0.35"/>
<path d="M106.76 210.674C93.4808 218.203 78.2367 222.245 64.1562 221.036L57.5056 209.517C71.6028 210.666 86.8192 206.603 100.071 199.089L106.76 210.674Z" fill="#8AFF61" stroke="black" stroke-width="0.35"/>
<circle cx="51.4774" cy="51.4774" r="51.3024" transform="matrix(0.996195 0.0871557 -0.43586 0.900015 50.7787 112.168)" fill="white" stroke="black" stroke-width="0.35"/>
<path d="M123.922 166.959C113.224 189.048 84.7324 205.221 60.283 203.082C35.8336 200.943 24.6852 181.302 35.3824 159.213C46.0796 137.124 74.5716 120.952 99.021 123.091C123.47 125.23 134.619 144.871 123.922 166.959Z" fill="url(#paint9_linear_3_12)" stroke="black" stroke-width="0.35"/>
<mask id="path-20-inside-1_3_12" fill="white">
<path fill-rule="evenodd" clip-rule="evenodd" d="M125.911 139.583C121.055 132.881 112.715 128.359 101.672 127.392C77.1267 125.245 48.5225 141.481 37.7831 163.657C32.8811 173.779 32.5486 183.39 35.9696 191.05C30.0313 182.855 29.302 171.399 35.2099 159.2C45.9493 137.024 74.5535 120.788 99.0992 122.935C112.441 124.102 121.837 130.461 125.911 139.583Z"/>
</mask>
<path fill-rule="evenodd" clip-rule="evenodd" d="M125.911 139.583C121.055 132.881 112.715 128.359 101.672 127.392C77.1267 125.245 48.5225 141.481 37.7831 163.657C32.8811 173.779 32.5486 183.39 35.9696 191.05C30.0313 182.855 29.302 171.399 35.2099 159.2C45.9493 137.024 74.5535 120.788 99.0992 122.935C112.441 124.102 121.837 130.461 125.911 139.583Z" fill="black"/>
<path d="M101.672 127.392L101.703 127.044L101.703 127.044L101.672 127.392ZM125.911 139.583L125.628 139.789L126.231 139.44L125.911 139.583ZM37.7831 163.657L38.0981 163.81L38.0981 163.81L37.7831 163.657ZM35.9696 191.05L35.6862 191.256L36.2892 190.908L35.9696 191.05ZM35.21 159.2L35.525 159.352L35.525 159.352L35.21 159.2ZM99.0992 122.935L99.1297 122.586L99.1297 122.586L99.0992 122.935ZM101.642 127.741C112.606 128.7 120.843 133.185 125.628 139.789L126.195 139.378C121.267 132.577 112.824 128.017 101.703 127.044L101.642 127.741ZM38.0981 163.81C43.431 152.798 53.2102 143.243 64.7231 136.708C76.2361 130.173 89.4532 126.675 101.642 127.741L101.703 127.044C89.3458 125.963 75.988 129.509 64.3776 136.099C52.7672 142.689 42.8747 152.341 37.4681 163.505L38.0981 163.81ZM36.2892 190.908C32.9187 183.36 33.2312 173.86 38.0981 163.81L37.4681 163.505C32.5311 173.699 32.1784 183.419 35.6501 191.193L36.2892 190.908ZM36.2531 190.845C30.4067 182.776 29.6599 171.463 35.525 159.352L34.8949 159.047C28.9441 171.335 29.6559 182.933 35.6862 191.256L36.2531 190.845ZM35.525 159.352C40.8578 148.34 50.637 138.785 62.15 132.251C73.6629 125.716 86.8801 122.217 99.0687 123.284L99.1297 122.586C86.7726 121.505 73.4148 125.051 61.8044 131.642C50.194 138.232 40.3015 147.883 34.8949 159.047L35.525 159.352ZM99.0687 123.284C112.314 124.443 121.581 130.744 125.592 139.726L126.231 139.44C122.094 130.177 112.568 123.762 99.1297 122.586L99.0687 123.284Z" fill="black" mask="url(#path-20-inside-1_3_12)"/>
<path d="M1220.62 143.405C1215.47 149.525 1207.3 153.611 1196.76 154.555L1190.88 164.745C1203.19 163.572 1212.15 158.067 1216.75 150.099C1216.75 150.099 1216.75 150.099 1216.75 150.099L1220.62 143.405Z" fill="white" stroke="black" stroke-width="0.398913"/>
<path d="M1124.72 127.197L1130.61 117.003C1125.94 107.318 1125.31 98.0696 1128.08 90.4495L1124.22 97.1396C1119.55 105.219 1119.34 115.871 1124.72 127.197Z" fill="#FFB525" stroke="black" stroke-width="0.398913"/>
<path d="M1152.1 155.367L1158.03 145.1C1146.33 138.396 1136.36 128.67 1130.82 117.437L1124.93 127.634C1130.41 138.883 1140.37 148.647 1152.1 155.367Z" fill="#FDD64C" stroke="black" stroke-width="0.398913"/>
<path d="M1152.45 155.564C1164.28 162.264 1177.85 165.86 1190.39 164.789L1196.28 154.597C1183.72 155.6 1170.18 151.98 1158.37 145.297L1152.45 155.564Z" fill="#F2EE61" stroke="black" stroke-width="0.398913"/>
<path d="M1131.03 116.995C1142.05 139.738 1171.38 156.389 1196.55 154.187C1221.73 151.985 1233.21 131.763 1222.19 109.02C1211.18 86.2767 1181.84 69.6253 1156.67 71.8277C1131.5 74.0301 1120.02 94.2523 1131.03 116.995Z" fill="white" stroke="black" stroke-width="0.398913"/>
<path d="M1137.11 116.552C1146.65 136.249 1172.06 150.671 1193.86 148.763C1215.66 146.856 1225.6 129.342 1216.06 109.644C1206.52 89.9471 1181.12 75.5255 1159.31 77.433C1137.51 79.3404 1127.57 96.8546 1137.11 116.552Z" fill="url(#paint10_linear_3_12)" stroke="black" stroke-width="0.398913"/>
<mask id="path-28-inside-2_3_12" fill="white">
<path fill-rule="evenodd" clip-rule="evenodd" d="M1135.29 92.117C1139.63 86.1337 1147.07 82.0966 1156.93 81.2341C1178.84 79.3171 1204.38 93.8112 1213.96 113.608C1218.34 122.644 1218.64 131.223 1215.58 138.061C1220.88 130.745 1221.53 120.519 1216.26 109.629C1206.67 89.8321 1181.14 75.338 1159.23 77.255C1147.32 78.297 1138.93 83.9732 1135.29 92.117Z"/>
</mask>
<path fill-rule="evenodd" clip-rule="evenodd" d="M1135.29 92.117C1139.63 86.1337 1147.07 82.0966 1156.93 81.2341C1178.84 79.3171 1204.38 93.8112 1213.96 113.608C1218.34 122.644 1218.64 131.223 1215.58 138.061C1220.88 130.745 1221.53 120.519 1216.26 109.629C1206.67 89.8321 1181.14 75.338 1159.23 77.255C1147.32 78.297 1138.93 83.9732 1135.29 92.117Z" fill="black"/>
<path d="M1156.93 81.2341L1156.89 80.8367L1156.89 80.8367L1156.93 81.2341ZM1135.29 92.1169L1135.61 92.351L1134.93 91.9542L1135.29 92.1169ZM1213.96 113.608L1213.6 113.781L1213.6 113.781L1213.96 113.608ZM1215.58 138.061L1215.9 138.295L1215.22 137.899L1215.58 138.061ZM1216.26 109.628L1215.9 109.802L1215.9 109.802L1216.26 109.628ZM1159.23 77.255L1159.26 77.6523L1159.26 77.6523L1159.23 77.255ZM1156.96 81.6315C1147.2 82.486 1139.87 86.4801 1135.61 92.351L1134.97 91.8828C1139.38 85.7871 1146.95 81.707 1156.89 80.8367L1156.96 81.6315ZM1213.6 113.781C1208.85 103.97 1200.14 95.4521 1189.87 89.6252C1179.6 83.7982 1167.82 80.6813 1156.96 81.6315L1156.89 80.8367C1167.95 79.8697 1179.89 83.0414 1190.26 88.9313C1200.64 94.8213 1209.49 103.449 1214.32 113.434L1213.6 113.781ZM1215.22 137.899C1218.21 131.189 1217.94 122.735 1213.6 113.781L1214.32 113.434C1218.74 122.552 1219.06 131.256 1215.95 138.224L1215.22 137.899ZM1215.26 137.827C1220.45 130.656 1221.13 120.592 1215.9 109.802L1216.62 109.455C1221.94 120.446 1221.31 130.834 1215.9 138.295L1215.26 137.827ZM1215.9 109.802C1211.15 99.9908 1202.43 91.473 1192.17 85.6461C1181.9 79.8191 1170.12 76.7022 1159.26 77.6523L1159.19 76.8576C1170.24 75.8906 1182.18 79.0623 1192.56 84.9522C1202.94 90.8422 1211.78 99.4696 1216.62 109.455L1215.9 109.802ZM1159.26 77.6523C1147.46 78.6847 1139.22 84.2965 1135.65 92.2796L1134.93 91.9542C1138.63 83.6497 1147.17 77.9092 1159.19 76.8576L1159.26 77.6523Z" fill="black" mask="url(#path-28-inside-2_3_12)"/>
<g opacity="0.6">
<path d="M313.474 0.255302C312.351 4.07025 312.833 8.58322 315.188 13.2623L312.394 18.4896C309.614 12.857 309.596 7.51514 311.799 3.39104C311.799 3.39103 311.799 3.39103 311.799 3.39102L313.474 0.255302Z" fill="white" stroke="black" stroke-width="0.2802"/>
<path d="M349.45 31.8948C354.743 31.3193 358.839 29.2122 361.425 26.1146L359.75 29.2489L359.75 29.2489C357.516 33.4307 352.983 36.3887 346.655 37.1252L349.45 31.8948Z" fill="#FF7061" stroke="black" stroke-width="0.2802"/>
<path d="M327 32.8732L329.823 27.5899C335.873 30.8406 342.758 32.5374 349.114 31.9299L346.317 37.163C339.975 37.8156 333.07 36.1351 327 32.8732Z" fill="#FF7C61" stroke="black" stroke-width="0.2802"/>
<path d="M326.753 32.7395C320.671 29.4156 315.464 24.5083 312.548 18.7965L315.343 13.5663C318.306 19.2644 323.515 24.1443 329.577 27.4562L326.753 32.7395Z" fill="#FF9461" stroke="black" stroke-width="0.2802"/>
<circle cx="23.5148" cy="23.5148" r="23.3747" transform="matrix(0.452129 0.891953 -0.994448 0.105229 351.482 -12.6586)" fill="white" stroke="black" stroke-width="0.2802"/>
<circle cx="20.3795" cy="20.3795" r="20.2394" transform="matrix(0.452129 0.891953 -0.994448 0.105229 349.749 -9.49658)" fill="url(#paint11_linear_3_12)" stroke="black" stroke-width="0.2802"/>
<mask id="path-36-inside-3_3_12" fill="white">
<path fill-rule="evenodd" clip-rule="evenodd" d="M358.974 23.0992C360.402 19.5984 360.144 15.2723 357.855 10.7558C352.766 0.716602 339.567 -6.46162 328.375 -5.27724C323.266 -4.73663 319.458 -2.54718 317.312 0.627945C319.058 -3.65264 323.326 -6.69915 329.483 -7.35069C340.676 -8.53507 353.874 -1.35685 358.963 8.6823C361.729 14.1391 361.53 19.3181 358.974 23.0992Z"/>
</mask>
<path fill-rule="evenodd" clip-rule="evenodd" d="M358.974 23.0992C360.402 19.5984 360.144 15.2723 357.855 10.7558C352.766 0.716602 339.567 -6.46162 328.375 -5.27724C323.266 -4.73663 319.458 -2.54718 317.312 0.627945C319.058 -3.65264 323.326 -6.69915 329.483 -7.35069C340.676 -8.53507 353.874 -1.35685 358.963 8.6823C361.729 14.1391 361.53 19.3181 358.974 23.0992Z" fill="black"/>
<path d="M357.855 10.7558L357.605 10.8825L357.855 10.7558ZM358.974 23.0992L358.715 22.9934L359.206 23.2561L358.974 23.0992ZM328.374 -5.27717L328.404 -4.99852L328.374 -5.27717ZM317.311 0.628014L317.052 0.522166L317.544 0.78493L317.311 0.628014ZM329.483 -7.35062L329.512 -7.07198L329.483 -7.35062ZM358.963 8.68237L358.713 8.80906L358.713 8.80906L358.963 8.68237ZM357.605 10.8825C359.866 15.3425 360.106 19.5829 358.715 22.9934L359.233 23.2051C360.699 19.614 360.423 15.2022 358.105 10.6291L357.605 10.8825ZM328.404 -4.99852C333.933 -5.58359 339.974 -4.10332 345.27 -1.22334C350.565 1.65663 355.091 5.92331 357.605 10.8825L358.105 10.6291C355.53 5.54919 350.912 1.20718 345.538 -1.71565C340.163 -4.63848 334.009 -6.15512 328.345 -5.55581L328.404 -4.99852ZM317.544 0.78493C319.634 -2.3079 323.359 -4.46469 328.404 -4.99852L328.345 -5.55581C323.172 -5.00843 319.281 -2.78633 317.079 0.471098L317.544 0.78493ZM317.571 0.733862C319.27 -3.43053 323.433 -6.42873 329.512 -7.07198L329.453 -7.62927C323.218 -6.96944 318.846 -3.87461 317.052 0.522166L317.571 0.733862ZM329.512 -7.07198C335.041 -7.65705 341.083 -6.17677 346.378 -3.2968C351.674 -0.416825 356.199 3.84985 358.713 8.80906L359.213 8.55569C356.638 3.47574 352.02 -0.866276 346.646 -3.7891C341.271 -6.71193 335.117 -8.22858 329.453 -7.62927L329.512 -7.07198ZM358.713 8.80906C361.444 14.1966 361.228 19.2637 358.742 22.9423L359.206 23.2561C361.831 19.3726 362.014 14.0819 359.213 8.55569L358.713 8.80906Z" fill="black" mask="url(#path-36-inside-3_3_12)"/>
</g>
<g opacity="0.23" filter="url(#filter0_f_3_12)">
<path d="M497.474 122.255C496.351 126.07 496.832 130.583 499.188 135.262L496.394 140.49C493.614 134.857 493.595 129.515 495.799 125.391C495.799 125.391 495.799 125.391 495.799 125.391L497.474 122.255Z" fill="white" stroke="black" stroke-width="0.2802"/>
<path d="M533.45 153.895C538.743 153.319 542.839 151.212 545.425 148.115L543.75 151.249L543.75 151.249C541.516 155.431 536.982 158.389 530.655 159.125L533.45 153.895Z" fill="#458F2C" stroke="black" stroke-width="0.2802"/>
<path d="M510.999 154.873L513.823 149.59C519.872 152.841 526.757 154.537 533.114 153.93L530.317 159.163C523.975 159.816 517.07 158.135 510.999 154.873Z" fill="#6FCF4E" stroke="black" stroke-width="0.2802"/>
<path d="M510.753 154.74C504.671 151.416 499.464 146.508 496.548 140.796L499.343 135.566C502.305 141.264 507.515 146.144 513.577 149.456L510.753 154.74Z" fill="#8AFF61" stroke="black" stroke-width="0.2802"/>
<circle cx="23.5148" cy="23.5148" r="23.3747" transform="matrix(0.452129 0.891953 -0.994448 0.105229 535.482 109.341)" fill="white" stroke="black" stroke-width="0.2802"/>
<circle cx="20.3795" cy="20.3795" r="20.2394" transform="matrix(0.452129 0.891953 -0.994448 0.105229 533.749 112.503)" fill="url(#paint12_linear_3_12)" stroke="black" stroke-width="0.2802"/>
<mask id="path-44-inside-4_3_12" fill="white">
<path fill-rule="evenodd" clip-rule="evenodd" d="M542.974 145.099C544.402 141.598 544.144 137.272 541.855 132.756C536.766 122.717 523.567 115.538 512.374 116.723C507.265 117.263 503.458 119.453 501.311 122.628C503.058 118.347 507.325 115.301 513.483 114.649C524.675 113.465 537.874 120.643 542.963 130.682C545.729 136.139 545.53 141.318 542.974 145.099Z"/>
</mask>
<path fill-rule="evenodd" clip-rule="evenodd" d="M542.974 145.099C544.402 141.598 544.144 137.272 541.855 132.756C536.766 122.717 523.567 115.538 512.374 116.723C507.265 117.263 503.458 119.453 501.311 122.628C503.058 118.347 507.325 115.301 513.483 114.649C524.675 113.465 537.874 120.643 542.963 130.682C545.729 136.139 545.53 141.318 542.974 145.099Z" fill="black"/>
<path d="M541.855 132.756L541.605 132.883L541.855 132.756ZM542.974 145.099L542.714 144.993L543.206 145.256L542.974 145.099ZM512.374 116.723L512.404 117.001L512.374 116.723ZM501.311 122.628L501.052 122.522L501.543 122.785L501.311 122.628ZM513.482 114.649L513.512 114.928L513.482 114.649ZM542.963 130.682L542.713 130.809L542.713 130.809L542.963 130.682ZM541.605 132.883C543.865 137.342 544.106 141.583 542.714 144.993L543.233 145.205C544.698 141.614 544.423 137.202 542.105 132.629L541.605 132.883ZM512.404 117.001C517.933 116.416 523.974 117.897 529.27 120.777C534.565 123.657 539.091 127.923 541.605 132.883L542.105 132.629C539.53 127.549 534.912 123.207 529.537 120.284C524.163 117.362 518.008 115.845 512.345 116.444L512.404 117.001ZM501.543 122.785C503.634 119.692 507.359 117.535 512.404 117.001L512.345 116.444C507.172 116.992 503.281 119.214 501.079 122.471L501.543 122.785ZM501.571 122.734C503.27 118.569 507.433 115.571 513.512 114.928L513.453 114.371C507.217 115.031 502.846 118.125 501.052 122.522L501.571 122.734ZM513.512 114.928C519.041 114.343 525.082 115.823 530.378 118.703C535.673 121.583 540.199 125.85 542.713 130.809L543.213 130.556C540.638 125.476 536.02 121.134 530.646 118.211C525.271 115.288 519.117 113.771 513.453 114.371L513.512 114.928ZM542.713 130.809C545.444 136.197 545.228 141.264 542.742 144.942L543.206 145.256C545.831 141.373 546.014 136.082 543.213 130.556L542.713 130.809Z" fill="black" mask="url(#path-44-inside-4_3_12)"/>
</g>
<g opacity="0.8">
<path d="M892.7 83.908C893.991 88.2908 893.438 93.4756 890.732 98.8512L893.941 104.857C897.135 98.3856 897.157 92.2485 894.626 87.5105C894.626 87.5105 894.626 87.5105 894.626 87.5105L892.7 83.908Z" fill="white" stroke="black" stroke-width="0.321911"/>
<path d="M851.369 120.257C845.289 119.596 840.582 117.175 837.612 113.617L839.536 117.217L839.536 117.218C842.103 122.022 847.311 125.42 854.581 126.266L851.369 120.257Z" fill="#5B40FF" stroke="black" stroke-width="0.321911"/>
<path d="M877.162 121.381L873.918 115.312C866.968 119.046 859.058 120.996 851.756 120.298L854.969 126.31C862.255 127.059 870.188 125.129 877.162 121.381Z" fill="#605CFF" stroke="black" stroke-width="0.321911"/>
<path d="M877.445 121.228C884.433 117.409 890.415 111.771 893.765 105.209L890.554 99.2004C887.15 105.747 881.165 111.353 874.201 115.158L877.445 121.228Z" fill="#6B91FF" stroke="black" stroke-width="0.321911"/>
<circle cx="27.0152" cy="27.0152" r="26.8542" transform="matrix(-0.452129 0.891953 0.994448 0.105229 849.035 69.0718)" fill="white" stroke="black" stroke-width="0.321911"/>
<circle cx="23.4131" cy="23.4131" r="23.2522" transform="matrix(-0.452129 0.891953 0.994448 0.105229 851.026 72.7045)" fill="url(#paint13_linear_3_12)" stroke="black" stroke-width="0.321911"/>
<mask id="path-52-inside-5_3_12" fill="white">
<path fill-rule="evenodd" clip-rule="evenodd" d="M840.428 110.152C838.787 106.13 839.083 101.16 841.713 95.9714C847.56 84.4378 862.723 76.1911 875.582 77.5518C881.452 78.1728 885.826 80.6882 888.292 84.336C886.286 79.4182 881.383 75.9182 874.309 75.1697C861.45 73.809 846.287 82.0557 840.44 93.5893C837.262 99.8584 837.491 105.808 840.428 110.152Z"/>
</mask>
<path fill-rule="evenodd" clip-rule="evenodd" d="M840.428 110.152C838.787 106.13 839.083 101.16 841.713 95.9714C847.56 84.4378 862.723 76.1911 875.582 77.5518C881.452 78.1728 885.826 80.6882 888.292 84.336C886.286 79.4182 881.383 75.9182 874.309 75.1697C861.45 73.809 846.287 82.0557 840.44 93.5893C837.262 99.8584 837.491 105.808 840.428 110.152Z" fill="black"/>
<path d="M841.713 95.9715L841.426 95.826L841.426 95.826L841.713 95.9715ZM840.428 110.152L840.726 110.031L840.161 110.333L840.428 110.152ZM875.582 77.5518L875.548 77.872L875.548 77.872L875.582 77.5518ZM888.292 84.3361L888.59 84.2145L888.025 84.5164L888.292 84.3361ZM874.309 75.1697L874.275 75.4899L874.275 75.4899L874.309 75.1697ZM840.44 93.5894L840.153 93.4438L840.44 93.5894ZM842.001 96.117C839.403 101.241 839.127 106.113 840.726 110.031L840.13 110.274C838.447 106.148 838.763 101.08 841.426 95.826L842.001 96.117ZM875.548 77.872C869.196 77.1998 862.256 78.9004 856.172 82.2091C850.088 85.5178 844.889 90.4196 842.001 96.117L841.426 95.826C844.385 89.9898 849.69 85.0014 855.864 81.6435C862.039 78.2856 869.109 76.5432 875.616 77.2317L875.548 77.872ZM888.025 84.5164C885.624 80.9631 881.344 78.4853 875.548 77.872L875.616 77.2317C881.559 77.8606 886.029 80.4135 888.559 84.1558L888.025 84.5164ZM887.994 84.4577C886.042 79.6734 881.259 76.2289 874.275 75.4899L874.343 74.8496C881.507 75.6077 886.529 79.1632 888.59 84.2145L887.994 84.4577ZM874.275 75.4899C867.923 74.8177 860.983 76.5183 854.899 79.827C848.815 83.1357 843.615 88.0375 840.727 93.7349L840.153 93.4438C843.111 87.6077 848.417 82.6193 854.591 79.2614C860.765 75.9035 867.836 74.1611 874.343 74.8496L874.275 75.4899ZM840.727 93.7349C837.59 99.9244 837.838 105.746 840.694 109.972L840.161 110.333C837.145 105.871 836.935 99.7926 840.153 93.4438L840.727 93.7349Z" fill="black" mask="url(#path-52-inside-5_3_12)"/>
</g>
</g>
<defs>
<filter id="filter0_f_3_12" x="484.08" y="101.668" width="74.3431" height="67.7738" filterUnits="userSpaceOnUse" color-interpolation-filters="sRGB">
<feFlood flood-opacity="0" result="BackgroundImageFix"/>
<feBlend mode="normal" in="SourceGraphic" in2="BackgroundImageFix" result="shape"/>
<feGaussianBlur stdDeviation="5" result="effect1_foregroundBlur_3_12"/>
</filter>
<linearGradient id="paint0_linear_3_12" x1="62.681" y1="76" x2="62.681" y2="195.985" gradientUnits="userSpaceOnUse">
<stop stop-color="#535353" stop-opacity="0"/>
<stop offset="1" stop-color="#03C59E"/>
</linearGradient>
<linearGradient id="paint1_linear_3_12" x1="197.018" y1="76" x2="197.018" y2="195.985" gradientUnits="userSpaceOnUse">
<stop stop-color="#535353" stop-opacity="0"/>
<stop offset="1" stop-color="#03C59E"/>
</linearGradient>
<linearGradient id="paint2_linear_3_12" x1="331.354" y1="76" x2="331.354" y2="195.985" gradientUnits="userSpaceOnUse">
<stop stop-color="#535353" stop-opacity="0"/>
<stop offset="1" stop-color="#03C59E"/>
</linearGradient>
<linearGradient id="paint3_linear_3_12" x1="465.691" y1="76" x2="465.691" y2="195.985" gradientUnits="userSpaceOnUse">
<stop stop-color="#535353" stop-opacity="0"/>
<stop offset="1" stop-color="#03C59E"/>
</linearGradient>
<linearGradient id="paint4_linear_3_12" x1="600.516" y1="76" x2="600.516" y2="195.985" gradientUnits="userSpaceOnUse">
<stop stop-color="#535353" stop-opacity="0"/>
<stop offset="1" stop-color="#03C59E"/>
</linearGradient>
<linearGradient id="paint5_linear_3_12" x1="734.353" y1="76" x2="734.353" y2="195.985" gradientUnits="userSpaceOnUse">
<stop stop-color="#535353" stop-opacity="0"/>
<stop offset="1" stop-color="#03C59E"/>
</linearGradient>
<linearGradient id="paint6_linear_3_12" x1="868.689" y1="76" x2="868.689" y2="195.985" gradientUnits="userSpaceOnUse">
<stop stop-color="#535353" stop-opacity="0"/>
<stop offset="1" stop-color="#03C59E"/>
</linearGradient>
<linearGradient id="paint7_linear_3_12" x1="1003.03" y1="76" x2="1003.03" y2="195.985" gradientUnits="userSpaceOnUse">
<stop stop-color="#535353" stop-opacity="0"/>
<stop offset="1" stop-color="#03C59E"/>
</linearGradient>
<linearGradient id="paint8_linear_3_12" x1="1137.36" y1="76" x2="1137.36" y2="195.985" gradientUnits="userSpaceOnUse">
<stop stop-color="#535353" stop-opacity="0"/>
<stop offset="1" stop-color="#03C59E"/>
</linearGradient>
<linearGradient id="paint9_linear_3_12" x1="99.0973" y1="122.933" x2="91.3574" y2="203.706" gradientUnits="userSpaceOnUse">
<stop stop-color="#8AFF61"/>
<stop offset="1" stop-color="#E9FF61"/>
</linearGradient>
<linearGradient id="paint10_linear_3_12" x1="1209.5" y1="142.5" x2="1171.14" y2="59.3956" gradientUnits="userSpaceOnUse">
<stop stop-color="#FFD361"/>
<stop offset="1" stop-color="#E9FF61"/>
</linearGradient>
<linearGradient id="paint11_linear_3_12" x1="20.3795" y1="2.09635e-08" x2="20.0309" y2="39.5341" gradientUnits="userSpaceOnUse">
<stop stop-color="#FF6161"/>
<stop offset="1" stop-color="#FFA361"/>
</linearGradient>
<linearGradient id="paint12_linear_3_12" x1="20.3795" y1="2.09635e-08" x2="20.0309" y2="39.5341" gradientUnits="userSpaceOnUse">
<stop stop-color="#8AFF61"/>
<stop offset="1" stop-color="#E9FF61"/>
</linearGradient>
<linearGradient id="paint13_linear_3_12" x1="23.4131" y1="2.40841e-08" x2="23.0127" y2="45.4191" gradientUnits="userSpaceOnUse">
<stop stop-color="#61A0FF"/>
<stop offset="1" stop-color="#8A61FF"/>
</linearGradient>
</defs>
</svg>
