<svg width="1920" height="501" viewBox="0 0 1920 501" fill="none" xmlns="http://www.w3.org/2000/svg">
<rect width="1920" height="500" fill="#0D1318"/>
<path d="M483.727 335L0.672852 499.985" stroke="url(#paint0_linear_1_738)" stroke-miterlimit="10"/>
<path d="M602.922 335L240.631 499.985" stroke="url(#paint1_linear_1_738)" stroke-miterlimit="10"/>
<path d="M722.115 335L480.588 499.985" stroke="url(#paint2_linear_1_738)" stroke-miterlimit="10"/>
<path d="M841.309 335L720.545 499.985" stroke="url(#paint3_linear_1_738)" stroke-miterlimit="10"/>
<path d="M960.489 335V499.985" stroke="url(#paint4_linear_1_738)" stroke-miterlimit="10"/>
<path d="M1079.68 335L1200.45 499.985" stroke="url(#paint5_linear_1_738)" stroke-miterlimit="10"/>
<path d="M1198.88 335L1440.4 499.985" stroke="url(#paint6_linear_1_738)" stroke-miterlimit="10"/>
<path d="M1318.07 335L1680.36 499.985" stroke="url(#paint7_linear_1_738)" stroke-miterlimit="10"/>
<path d="M1437.26 335L1920.32 499.985" stroke="url(#paint8_linear_1_738)" stroke-miterlimit="10"/>
<path opacity="0.4" d="M242.985 417.215H1678.01" stroke="#507365" stroke-miterlimit="10"/>
<path opacity="0.2" d="M387.619 367.821H1533.37" stroke="#507365" stroke-miterlimit="10"/>
<g opacity="0.56">
<g opacity="0.5">
<rect opacity="0.6" x="532.48" y="465.842" width="348.684" height="107.52" transform="rotate(-90 532.48 465.842)" fill="url(#paint9_linear_1_738)"/>
<rect x="213.333" y="477" width="348.684" height="107.52" transform="rotate(-90 213.333 477)" fill="url(#paint10_linear_1_738)"/>
<rect x="426.667" y="214.789" width="214.789" height="107.52" transform="rotate(-90 426.667 214.789)" fill="url(#paint11_linear_1_738)"/>
<rect x="107.52" y="246.404" width="246.403" height="105.813" transform="rotate(-90 107.52 246.404)" fill="url(#paint12_linear_1_738)"/>
<rect x="320.854" y="303.123" width="246.403" height="105.813" transform="rotate(-90 320.854 303.123)" fill="url(#paint13_linear_1_738)"/>
<rect y="421.21" width="246.403" height="107.52" transform="rotate(-90 0 421.21)" fill="url(#paint14_linear_1_738)"/>
</g>
<g opacity="0.5">
<rect opacity="0.6" width="348.684" height="107.52" transform="matrix(8.0231e-08 -1 -1 -2.38148e-08 1387.52 465.842)" fill="url(#paint15_linear_1_738)"/>
<rect width="348.684" height="107.52" transform="matrix(8.0231e-08 -1 -1 -2.65612e-08 1706.67 477)" fill="url(#paint16_linear_1_738)"/>
<rect width="214.789" height="107.52" transform="matrix(8.49905e-08 -1 -1 -2.24812e-08 1493.33 214.789)" fill="url(#paint17_linear_1_738)"/>
<rect width="246.403" height="105.813" transform="matrix(8.49905e-08 -1 -1 -2.24812e-08 1812.48 246.404)" fill="url(#paint18_linear_1_738)"/>
<rect width="246.403" height="105.813" transform="matrix(8.49905e-08 -1 -1 -2.24812e-08 1599.15 303.123)" fill="url(#paint19_linear_1_738)"/>
<rect width="246.403" height="107.52" transform="matrix(8.65841e-08 -1 -1 -2.20674e-08 1920 421.21)" fill="url(#paint20_linear_1_738)"/>
</g>
<g opacity="0.5">
<rect opacity="0.6" width="348.684" height="107.52" transform="matrix(8.0231e-08 -1 -1 -2.38148e-08 747.52 465.842)" fill="url(#paint21_linear_1_738)"/>
<rect width="348.684" height="107.52" transform="matrix(8.0231e-08 -1 -1 -2.65612e-08 1066.67 477)" fill="url(#paint22_linear_1_738)"/>
<rect width="214.789" height="107.52" transform="matrix(8.49905e-08 -1 -1 -2.24812e-08 853.333 214.789)" fill="url(#paint23_linear_1_738)"/>
<rect width="246.403" height="105.813" transform="matrix(8.49905e-08 -1 -1 -2.24812e-08 1172.48 246.404)" fill="url(#paint24_linear_1_738)"/>
<rect width="246.403" height="105.813" transform="matrix(8.49905e-08 -1 -1 -2.24812e-08 959.146 303.123)" fill="url(#paint25_linear_1_738)"/>
<rect width="246.403" height="107.52" transform="matrix(8.65841e-08 -1 -1 -2.20674e-08 1280 421.21)" fill="url(#paint26_linear_1_738)"/>
</g>
</g>
<ellipse cx="1299.74" cy="395.5" rx="83.5" ry="27.5" fill="black"/>
<mask id="path-32-inside-1_1_738" fill="white">
<path fill-rule="evenodd" clip-rule="evenodd" d="M1382.09 399.244C1382.78 397.823 1383.14 396.367 1383.14 394.882C1383.14 379.742 1345.76 367.469 1299.65 367.469C1253.54 367.469 1216.17 379.742 1216.17 394.882C1216.17 396.367 1216.53 397.823 1217.22 399.244C1223.58 386.176 1258.06 376.192 1299.65 376.192C1341.24 376.192 1375.72 386.176 1382.09 399.244Z"/>
</mask>
<path fill-rule="evenodd" clip-rule="evenodd" d="M1382.09 399.244C1382.78 397.823 1383.14 396.367 1383.14 394.882C1383.14 379.742 1345.76 367.469 1299.65 367.469C1253.54 367.469 1216.17 379.742 1216.17 394.882C1216.17 396.367 1216.53 397.823 1217.22 399.244C1223.58 386.176 1258.06 376.192 1299.65 376.192C1341.24 376.192 1375.72 386.176 1382.09 399.244Z" fill="#00D770"/>
<path d="M1382.09 399.244L1381.26 399.648L1382.09 401.353L1382.92 399.648L1382.09 399.244ZM1217.22 399.244L1216.39 399.648L1217.22 401.353L1218.05 399.648L1217.22 399.244ZM1382.21 394.882C1382.21 396.213 1381.89 397.532 1381.26 398.839L1382.92 399.648C1383.66 398.115 1384.06 396.52 1384.06 394.882H1382.21ZM1299.65 368.393C1322.64 368.393 1343.4 371.453 1358.4 376.376C1365.9 378.839 1371.9 381.751 1376.01 384.941C1380.13 388.141 1382.21 391.508 1382.21 394.882H1384.06C1384.06 390.687 1381.47 386.842 1377.14 383.482C1372.8 380.113 1366.58 377.119 1358.97 374.621C1343.75 369.622 1322.78 366.546 1299.65 366.546V368.393ZM1217.09 394.882C1217.09 391.508 1219.17 388.141 1223.29 384.941C1227.4 381.751 1233.41 378.839 1240.91 376.376C1255.9 371.453 1276.67 368.393 1299.65 368.393V366.546C1276.53 366.546 1255.55 369.622 1240.33 374.621C1232.72 377.119 1226.5 380.113 1222.16 383.482C1217.83 386.842 1215.24 390.687 1215.24 394.882H1217.09ZM1218.05 398.839C1217.41 397.532 1217.09 396.213 1217.09 394.882H1215.24C1215.24 396.52 1215.64 398.115 1216.39 399.648L1218.05 398.839ZM1218.05 399.648C1219.52 396.619 1222.69 393.66 1227.4 390.928C1232.09 388.205 1238.22 385.757 1245.48 383.706C1259.99 379.604 1278.92 377.115 1299.65 377.115V375.268C1278.79 375.268 1259.69 377.771 1244.97 381.929C1237.62 384.007 1231.33 386.506 1226.47 389.33C1221.62 392.145 1218.09 395.335 1216.39 398.839L1218.05 399.648ZM1299.65 377.115C1320.38 377.115 1339.31 379.604 1353.83 383.706C1361.09 385.757 1367.22 388.205 1371.91 390.928C1376.61 393.66 1379.78 396.619 1381.26 399.648L1382.92 398.839C1381.21 395.335 1377.68 392.145 1372.83 389.33C1367.97 386.506 1361.69 384.007 1354.33 381.929C1339.62 377.771 1320.51 375.268 1299.65 375.268V377.115Z" fill="white" mask="url(#path-32-inside-1_1_738)"/>
<path d="M1382.78 395.5C1382.78 399.092 1380.57 402.59 1376.39 405.84C1372.23 409.085 1366.17 412.027 1358.64 414.507C1343.59 419.464 1322.76 422.538 1299.74 422.538C1276.72 422.538 1255.89 419.464 1240.84 414.507C1233.31 412.027 1227.25 409.085 1223.08 405.84C1218.91 402.59 1216.7 399.092 1216.7 395.5C1216.7 391.908 1218.91 388.41 1223.08 385.16C1227.25 381.915 1233.31 378.973 1240.84 376.493C1255.89 371.536 1276.72 368.462 1299.74 368.462C1322.76 368.462 1343.59 371.536 1358.64 376.493C1366.17 378.973 1372.23 381.915 1376.39 385.16C1380.57 388.41 1382.78 391.908 1382.78 395.5Z" stroke="white" stroke-width="0.923529"/>
<path fill-rule="evenodd" clip-rule="evenodd" d="M1355.7 416.168C1340.89 420.645 1321.23 423.373 1299.65 423.373C1278.08 423.373 1258.42 420.645 1243.6 416.168C1256.26 398.971 1276.66 387.814 1299.65 387.814C1322.65 387.814 1343.04 398.971 1355.7 416.168Z" fill="url(#paint27_linear_1_738)"/>
<path opacity="0.2" d="M1383.37 394.965L1383.16 395.101V395.354C1383.16 398.968 1380.95 402.485 1376.79 405.752C1372.64 409.014 1366.59 411.972 1359.09 414.464C1344.08 419.448 1323.32 422.538 1300.36 422.538C1277.4 422.538 1256.64 419.448 1241.63 414.464C1234.13 411.972 1228.08 409.014 1223.93 405.752C1219.77 402.485 1217.56 398.968 1217.56 395.354V395.1L1217.35 394.964L1038.83 281.462H1300.36H1560.66L1383.37 394.965Z" fill="url(#paint28_linear_1_738)" stroke="url(#paint29_linear_1_738)" stroke-width="0.923529"/>
<path opacity="0.5" d="M1383.5 395.16L1383.39 395.228V395.354C1383.39 399.07 1381.12 402.647 1376.93 405.933C1372.75 409.218 1366.68 412.187 1359.16 414.684C1344.12 419.677 1323.33 422.769 1300.36 422.769C1277.39 422.769 1256.6 419.677 1241.56 414.684C1234.04 412.187 1227.97 409.218 1223.79 405.933C1219.6 402.647 1217.33 399.07 1217.33 395.354V395.227L1217.22 395.159L1038.03 281.231H1300.36H1561.45L1383.5 395.16Z" stroke="url(#paint30_linear_1_738)" stroke-width="0.461765"/>
<g style="mix-blend-mode:hard-light">
<path d="M1382.52 395.592L1382.47 395.659V395.743C1382.47 399.396 1380.21 402.916 1376.03 406.155C1371.86 409.392 1365.81 412.318 1358.3 414.779C1343.29 419.701 1322.55 422.75 1299.62 422.75C1276.69 422.75 1255.94 419.701 1240.94 414.779C1233.43 412.318 1227.38 409.392 1223.2 406.155C1219.03 402.916 1216.77 399.396 1216.77 395.743V395.66L1216.72 395.594L1132.74 283.25H1299.62H1467.74L1382.52 395.592Z" fill="url(#paint31_linear_1_738)"/>
<path d="M1382.52 395.592L1382.47 395.659V395.743C1382.47 399.396 1380.21 402.916 1376.03 406.155C1371.86 409.392 1365.81 412.318 1358.3 414.779C1343.29 419.701 1322.55 422.75 1299.62 422.75C1276.69 422.75 1255.94 419.701 1240.94 414.779C1233.43 412.318 1227.38 409.392 1223.2 406.155C1219.03 402.916 1216.77 399.396 1216.77 395.743V395.66L1216.72 395.594L1132.74 283.25H1299.62H1467.74L1382.52 395.592Z" stroke="url(#paint32_linear_1_738)" stroke-width="0.5"/>
</g>
<path d="M1382.53 395.604L1382.49 395.666V395.743C1382.49 399.404 1380.23 402.93 1376.05 406.17C1371.87 409.409 1365.81 412.335 1358.31 414.797C1343.3 419.72 1322.55 422.769 1299.62 422.769C1276.69 422.769 1255.94 419.72 1240.93 414.797C1233.42 412.335 1227.37 409.409 1223.19 406.17C1219.01 402.93 1216.75 399.404 1216.75 395.743V395.667L1216.7 395.605L1132.7 283.231H1299.62H1467.77L1382.53 395.604Z" stroke="url(#paint33_linear_1_738)" stroke-width="0.461765"/>
<path d="M1349.6 294.084C1337.57 299.664 1322.4 299.884 1305.98 293.512L1289.91 304.234C1308.77 311.46 1325.88 309.903 1338.39 301.562C1338.39 301.562 1338.39 301.562 1338.39 301.562L1349.6 294.084Z" fill="#45922C" stroke="black" stroke-width="0.5"/>
<path d="M1236.65 191.199C1236.82 173.31 1242.82 159.143 1252.73 150.051L1241.53 157.525L1241.53 157.525C1228.85 165.981 1220.85 181.442 1220.57 201.924L1236.65 191.199Z" fill="white" stroke="black" stroke-width="0.5"/>
<path d="M1240.25 262.695L1256.42 251.911C1244.14 233.658 1236.6 212.225 1236.64 191.802L1220.56 202.529C1220.43 222.934 1227.95 244.407 1240.25 262.695Z" fill="#8AFF61" stroke="black" stroke-width="0.5"/>
<path d="M1240.53 263.11C1252.98 281.457 1270.22 296.528 1289.34 304.013L1305.41 293.289C1286.32 285.718 1269.12 270.637 1256.7 252.327L1240.53 263.11Z" fill="#6FCF4E" stroke="black" stroke-width="0.5"/>
<path d="M1237.13 191.424C1236.8 232.569 1267.62 278.038 1305.95 292.982C1344.29 307.926 1375.63 286.685 1375.96 245.54C1376.29 204.395 1345.47 158.927 1307.14 143.983C1268.8 129.039 1237.46 150.279 1237.13 191.424Z" fill="url(#paint34_linear_1_738)" stroke="black" stroke-width="0.5"/>
<path d="M1246.24 195.13C1245.96 230.812 1272.68 270.244 1305.93 283.204C1339.17 296.163 1366.36 277.743 1366.64 242.061C1366.92 206.379 1340.2 166.947 1306.96 153.988C1273.71 141.028 1246.53 159.448 1246.24 195.13Z" fill="url(#paint35_linear_1_738)" stroke="black" stroke-width="0.35"/>
<mask id="path-46-inside-2_1_738" fill="white">
<path fill-rule="evenodd" clip-rule="evenodd" d="M1261.34 158.235C1271.98 152.636 1285.74 152.115 1300.74 157.96C1334.07 170.954 1360.87 210.493 1360.58 246.272C1360.45 262.605 1354.7 275.331 1345.32 283.103C1358.32 276.255 1366.65 261.809 1366.8 242.124C1367.09 206.346 1340.29 166.807 1306.96 153.812C1288.84 146.75 1272.52 148.981 1261.34 158.235Z"/>
</mask>
<path fill-rule="evenodd" clip-rule="evenodd" d="M1261.34 158.235C1271.98 152.636 1285.74 152.115 1300.74 157.96C1334.07 170.954 1360.87 210.493 1360.58 246.272C1360.45 262.605 1354.7 275.331 1345.32 283.103C1358.32 276.255 1366.65 261.809 1366.8 242.124C1367.09 206.346 1340.29 166.807 1306.96 153.812C1288.84 146.75 1272.52 148.981 1261.34 158.235Z" fill="black"/>
<path d="M1300.74 157.96L1300.92 157.494L1300.92 157.494L1300.74 157.96ZM1261.34 158.235L1261.58 158.677L1261.03 157.85L1261.34 158.235ZM1360.58 246.272L1361.08 246.276L1360.58 246.272ZM1345.32 283.103L1345.55 283.545L1345 282.718L1345.32 283.103ZM1366.8 242.124L1366.3 242.12L1366.8 242.124ZM1306.96 153.812L1307.14 153.346L1307.14 153.346L1306.96 153.812ZM1300.56 158.426C1285.67 152.622 1272.06 153.159 1261.58 158.677L1261.11 157.792C1271.9 152.112 1285.82 151.608 1300.92 157.494L1300.56 158.426ZM1360.08 246.268C1360.22 228.499 1353.64 209.767 1342.85 193.852C1332.07 177.937 1317.11 164.879 1300.56 158.426L1300.92 157.494C1317.7 164.035 1332.81 177.244 1343.68 193.291C1354.56 209.339 1361.23 228.266 1361.08 246.276L1360.08 246.268ZM1345 282.718C1354.25 275.059 1359.95 262.486 1360.08 246.268L1361.08 246.276C1360.95 262.724 1355.16 275.603 1345.64 283.488L1345 282.718ZM1345.09 282.661C1357.89 275.916 1366.15 261.664 1366.3 242.12L1367.3 242.128C1367.14 261.954 1358.76 276.593 1345.55 283.545L1345.09 282.661ZM1366.3 242.12C1366.44 224.352 1359.86 205.62 1349.07 189.705C1338.29 173.79 1323.33 160.732 1306.77 154.278L1307.14 153.346C1323.92 159.888 1339.03 173.096 1349.9 189.144C1360.78 205.191 1367.45 224.118 1367.3 242.128L1366.3 242.12ZM1306.77 154.278C1288.79 147.266 1272.67 149.507 1261.66 158.62L1261.03 157.85C1272.37 148.456 1288.89 146.234 1307.14 153.346L1306.77 154.278Z" fill="black" mask="url(#path-46-inside-2_1_738)"/>
<path d="M1336.35 211.722L1317.12 202.549L1308.65 211.02L1327.88 220.193L1336.35 211.722Z" fill="#8AFF61" stroke="#171717" stroke-width="0.5" stroke-miterlimit="10"/>
<path d="M1336.03 228.193C1336.06 225.641 1327.89 219.588 1316.74 213.606L1308.27 222.077C1319.42 228.059 1327.58 234.112 1327.56 236.664L1336.03 228.193Z" fill="#6FCF4E" stroke="#171717" stroke-width="0.5" stroke-miterlimit="10"/>
<path d="M1282.67 186.116L1282.79 170.495L1274.32 178.966L1274.2 194.587L1282.67 186.116Z" fill="#6FCF4E" stroke="#171717" stroke-width="0.5" stroke-miterlimit="10"/>
<path d="M1302.09 205.313L1302.18 195.422L1293.7 203.893L1293.62 213.784L1302.09 205.313Z" fill="#6FCF4E" stroke="#171717" stroke-width="0.5" stroke-miterlimit="10"/>
<path d="M1302.18 195.422L1282.67 186.116L1274.2 194.587L1293.7 203.892L1302.18 195.422Z" fill="#8AFF61" stroke="#171717" stroke-width="0.5" stroke-miterlimit="10"/>
<path d="M1345.16 236.454C1342.63 238.978 1331.34 236.557 1316.89 230.444L1308.42 238.915C1322.87 245.028 1334.16 247.449 1336.69 244.925L1345.16 236.454Z" fill="#8AFF61" stroke="#171717" stroke-width="0.5" stroke-miterlimit="10"/>
<path d="M1302.15 217.413L1302.23 206.687L1293.76 215.158L1293.67 225.884L1302.15 217.413Z" fill="#6FCF4E" stroke="#171717" stroke-width="0.5" stroke-miterlimit="10"/>
<path d="M1302.23 206.687C1292.26 202.496 1284.62 200.653 1283.12 202.157L1274.65 210.628C1276.15 209.123 1283.79 210.967 1293.76 215.158L1302.23 206.687Z" fill="#6FCF4E" stroke="#171717" stroke-width="0.5" stroke-miterlimit="10"/>
<path fill-rule="evenodd" clip-rule="evenodd" d="M1273.69 199.243C1273.34 199.586 1273.16 200.022 1273.16 200.551L1273.16 200.552C1273.12 204.988 1285.48 214.597 1301.95 223.323L1293.48 231.794C1277 223.067 1264.65 213.458 1264.69 209.022L1264.69 209.022C1264.69 208.492 1264.87 208.057 1265.22 207.714L1273.69 199.243Z" fill="#8AFF61"/>
<path d="M1273.16 200.551L1273.34 200.726L1273.41 200.654L1273.41 200.553L1273.16 200.551ZM1273.16 200.552L1272.98 200.377L1272.91 200.449L1272.91 200.55L1273.16 200.552ZM1301.95 223.323L1302.12 223.5L1302.36 223.261L1302.06 223.102L1301.95 223.323ZM1293.48 231.794L1293.36 232.015L1293.52 232.101L1293.65 231.971L1293.48 231.794ZM1264.69 209.022L1264.51 208.845L1264.44 208.918L1264.44 209.02L1264.69 209.022ZM1264.69 209.022L1264.87 209.198L1264.94 209.126L1264.94 209.024L1264.69 209.022ZM1265.22 207.714L1265.04 207.537L1265.04 207.537L1265.22 207.714ZM1273.41 200.553C1273.41 200.085 1273.57 199.714 1273.86 199.42L1273.51 199.066C1273.12 199.459 1272.91 199.958 1272.91 200.549L1273.41 200.553ZM1273.34 200.726L1273.34 200.726L1272.98 200.377L1272.98 200.377L1273.34 200.726ZM1302.06 223.102C1293.84 218.744 1286.65 214.168 1281.52 210.132C1278.95 208.114 1276.91 206.236 1275.52 204.592C1274.82 203.771 1274.29 203.013 1273.93 202.331C1273.58 201.646 1273.41 201.052 1273.41 200.554L1272.91 200.55C1272.9 201.16 1273.11 201.837 1273.49 202.561C1273.87 203.288 1274.42 204.077 1275.14 204.916C1276.56 206.595 1278.63 208.496 1281.21 210.525C1286.37 214.585 1293.59 219.176 1301.83 223.544L1302.06 223.102ZM1293.65 231.971L1302.12 223.5L1301.77 223.146L1293.3 231.617L1293.65 231.971ZM1264.44 209.02C1264.43 209.63 1264.64 210.307 1265.02 211.031C1265.4 211.758 1265.95 212.547 1266.66 213.386C1268.09 215.065 1270.16 216.966 1272.74 218.996C1277.89 223.055 1285.11 227.647 1293.36 232.015L1293.59 231.573C1285.37 227.215 1278.17 222.639 1273.05 218.603C1270.48 216.584 1268.44 214.706 1267.05 213.063C1266.35 212.241 1265.82 211.483 1265.46 210.801C1265.1 210.116 1264.93 209.522 1264.94 209.024L1264.44 209.02ZM1264.51 208.845L1264.51 208.845L1264.87 209.198L1264.87 209.198L1264.51 208.845ZM1265.04 207.537C1264.65 207.929 1264.44 208.428 1264.44 209.02L1264.94 209.024C1264.94 208.556 1265.1 208.185 1265.39 207.891L1265.04 207.537ZM1273.51 199.066L1265.04 207.537L1265.39 207.891L1273.86 199.42L1273.51 199.066Z" fill="#171717"/>
<path d="M1301.69 254.882L1301.95 223.323L1293.48 231.794L1293.22 263.353L1301.69 254.882Z" fill="#6FCF4E" stroke="#171717" stroke-width="0.5" stroke-miterlimit="10"/>
<path d="M1316.63 262.01L1301.69 254.883L1293.22 263.354L1308.16 270.481L1316.63 262.01Z" fill="#8AFF61" stroke="#171717" stroke-width="0.5" stroke-miterlimit="10"/>
<path d="M1345.69 235.144C1345.72 230.722 1333.44 221.154 1317.04 212.448L1317.12 202.549L1336.35 211.722L1336.48 196.101L1282.79 170.495L1282.67 186.116L1302.18 195.422L1302.09 205.313C1285.61 198.32 1273.2 196.116 1273.16 200.551C1273.12 204.988 1285.48 214.597 1301.95 223.323L1301.69 254.883L1316.63 262.01L1316.89 230.444C1333.3 237.389 1345.65 239.568 1345.69 235.144ZM1282.85 202.824C1282.87 200.253 1291.09 202.006 1302.23 206.687L1302.14 217.413C1291.02 211.473 1282.83 205.396 1282.85 202.824ZM1316.65 224.331L1316.74 213.605C1327.89 219.587 1336.06 225.641 1336.03 228.193C1336.01 230.746 1327.81 228.994 1316.65 224.331Z" fill="white" stroke="#171717" stroke-width="0.5" stroke-miterlimit="10"/>
<path d="M1063.25 284.077C1066.12 290.756 1072.24 296.379 1081.3 299.737L1083.99 309.942C1073.67 306.072 1067.25 299.249 1065.16 291.32C1065.16 291.32 1065.16 291.32 1065.16 291.32L1063.25 284.077Z" fill="white" stroke="black" stroke-width="0.25"/>
<path d="M1146.51 283.082C1152.95 275.679 1155.61 267.677 1154.81 260.353L1156.71 267.591L1156.71 267.591C1158.83 275.629 1156.5 284.832 1149.2 293.291L1146.51 283.082Z" fill="#D98F00" stroke="black" stroke-width="0.25"/>
<path d="M1119.21 310.944L1116.51 300.685C1128.12 297.678 1138.95 291.66 1146.31 283.309L1149 293.519C1141.68 301.891 1130.84 307.933 1119.21 310.944Z" fill="#DD9F00" stroke="black" stroke-width="0.25"/>
<path d="M1118.97 311.007C1107.26 313.993 1094.78 313.907 1084.27 310.049L1081.59 299.842C1092.11 303.662 1104.58 303.729 1116.27 300.747L1118.97 311.007Z" fill="#FFC634" stroke="black" stroke-width="0.25"/>
<circle cx="40.72" cy="40.72" r="40.595" transform="matrix(0.93817 0.346175 -0.65729 0.753637 1096.73 224.17)" fill="white" stroke="black" stroke-width="0.25"/>
<path d="M1141.18 281.218C1128.41 295.864 1103.28 302.283 1085.04 295.556C1066.81 288.828 1062.39 271.502 1075.16 256.857C1087.93 242.211 1113.07 235.792 1131.3 242.52C1149.53 249.247 1153.96 266.573 1141.18 281.218Z" fill="url(#paint36_linear_1_738)" stroke="black" stroke-width="0.207723"/>
<mask id="path-67-inside-3_1_738" fill="white">
<path fill-rule="evenodd" clip-rule="evenodd" d="M1148.37 260.726C1146.05 254.6 1140.63 249.414 1132.41 246.379C1114.12 239.631 1088.91 246.069 1076.1 260.758C1070.25 267.463 1068 274.728 1069.02 281.286C1066.19 273.796 1068.02 264.901 1075.06 256.82C1087.87 242.132 1113.08 235.694 1131.37 242.441C1141.31 246.108 1147.16 252.916 1148.37 260.726Z"/>
</mask>
<path fill-rule="evenodd" clip-rule="evenodd" d="M1148.37 260.726C1146.05 254.6 1140.63 249.414 1132.41 246.379C1114.12 239.631 1088.91 246.069 1076.1 260.758C1070.25 267.463 1068 274.728 1069.02 281.286C1066.19 273.796 1068.02 264.901 1075.06 256.82C1087.87 242.132 1113.08 235.694 1131.37 242.441C1141.31 246.108 1147.16 252.916 1148.37 260.726Z" fill="black"/>
<path d="M1132.41 246.379L1132.49 246.144L1132.49 246.144L1132.41 246.379ZM1148.37 260.726L1148.13 260.814L1148.61 260.687L1148.37 260.726ZM1076.1 260.758L1075.91 260.594L1075.91 260.594L1076.1 260.758ZM1069.02 281.286L1068.78 281.375L1069.26 281.248L1069.02 281.286ZM1075.06 256.82L1075.25 256.985L1075.06 256.82ZM1131.37 242.441L1131.28 242.675L1131.28 242.675L1131.37 242.441ZM1132.32 246.613C1140.49 249.629 1145.85 254.77 1148.13 260.814L1148.6 260.637C1146.26 254.431 1140.77 249.199 1132.49 246.144L1132.32 246.613ZM1076.29 260.922C1082.65 253.624 1092.11 248.364 1102.26 245.772C1112.41 243.18 1123.23 243.26 1132.32 246.613L1132.49 246.144C1123.29 242.75 1112.37 242.676 1102.14 245.288C1091.91 247.9 1082.36 253.204 1075.91 260.594L1076.29 260.922ZM1069.26 281.248C1068.26 274.777 1070.48 267.584 1076.29 260.922L1075.91 260.594C1070.03 267.342 1067.74 274.679 1068.77 281.325L1069.26 281.248ZM1069.25 281.198C1066.46 273.812 1068.25 265.012 1075.25 256.985L1074.88 256.656C1067.78 264.79 1065.92 273.779 1068.78 281.375L1069.25 281.198ZM1075.25 256.985C1081.62 249.686 1091.07 244.427 1101.23 241.834C1111.38 239.242 1122.2 239.323 1131.28 242.675L1131.46 242.206C1122.26 238.812 1111.33 238.738 1101.1 241.35C1090.87 243.962 1081.32 249.266 1074.88 256.656L1075.25 256.985ZM1131.28 242.675C1141.16 246.319 1146.93 253.063 1148.12 260.764L1148.61 260.687C1147.39 252.769 1141.46 245.898 1131.46 242.206L1131.28 242.675Z" fill="black" mask="url(#path-67-inside-3_1_738)"/>
<path d="M1120.93 254.907C1120.94 254.974 1120.94 255.043 1120.93 255.115L1120.87 261.648C1120.92 262.702 1119.97 264.478 1119.97 264.478L1120.04 257.738C1120.04 257.738 1120.87 256.178 1120.93 255.115L1120.93 254.907Z" fill="#FFB700"/>
<path d="M1120.93 254.907C1120.98 255.962 1120.04 257.738 1120.04 257.738L1119.97 264.478C1119.97 264.478 1120.92 262.702 1120.87 261.648L1120.93 254.907Z" stroke="black" stroke-width="0.25" stroke-linejoin="round"/>
<path d="M1094.48 253.778L1099.46 257.516L1099.39 264.257L1094.42 260.519L1094.48 253.778Z" fill="#D98F00" stroke="black" stroke-width="0.25" stroke-linejoin="round"/>
<path d="M1087.25 259.004L1092.23 262.742L1092.17 269.483L1087.19 265.745L1087.25 259.004Z" fill="#D98F00" stroke="black" stroke-width="0.25" stroke-linejoin="round"/>
<path fill-rule="evenodd" clip-rule="evenodd" d="M1101.84 260.427C1100.5 261.376 1099.24 262.422 1099.24 262.422L1099.18 269.163C1099.18 269.163 1100.44 268.116 1101.78 267.167L1101.78 267.166C1103.13 266.217 1104.33 265.396 1106.5 264.456L1106.5 264.457C1108.68 263.518 1110.76 263.562 1112.05 264.466L1112.11 257.725C1110.83 256.822 1108.74 256.778 1106.57 257.716L1106.57 257.716C1104.39 258.655 1103.19 259.477 1101.84 260.426L1101.84 260.427ZM1113.27 259.652C1113.27 258.939 1112.91 258.291 1112.11 257.725L1112.05 264.465C1112.85 265.032 1113.21 265.679 1113.2 266.392L1113.27 259.652Z" fill="#D98F00"/>
<path d="M1099.24 262.422L1099.16 262.327C1099.14 262.35 1099.12 262.385 1099.12 262.421L1099.24 262.422ZM1101.84 260.427L1101.91 260.529C1101.95 260.508 1101.96 260.474 1101.97 260.436L1101.84 260.427ZM1099.18 269.163L1099.06 269.162C1099.06 269.211 1099.08 269.255 1099.13 269.276C1099.17 269.297 1099.22 269.29 1099.26 269.259L1099.18 269.163ZM1101.78 267.167L1101.85 267.269C1101.89 267.246 1101.91 267.208 1101.91 267.168L1101.78 267.167ZM1101.78 267.166L1101.71 267.064C1101.68 267.088 1101.66 267.125 1101.66 267.165L1101.78 267.166ZM1106.5 264.456L1106.63 264.428C1106.62 264.392 1106.59 264.361 1106.56 264.345C1106.53 264.328 1106.49 264.327 1106.46 264.342L1106.5 264.456ZM1106.5 264.457L1106.38 264.485C1106.39 264.521 1106.42 264.552 1106.45 264.568C1106.48 264.585 1106.52 264.586 1106.55 264.572L1106.5 264.457ZM1112.05 264.466L1111.97 264.568C1112.01 264.594 1112.06 264.598 1112.1 264.577C1112.14 264.556 1112.17 264.513 1112.17 264.467L1112.05 264.466ZM1112.11 257.725L1112.23 257.726C1112.23 257.685 1112.21 257.647 1112.18 257.623L1112.11 257.725ZM1106.57 257.716L1106.45 257.745C1106.45 257.781 1106.48 257.811 1106.51 257.828C1106.54 257.845 1106.58 257.846 1106.62 257.831L1106.57 257.716ZM1106.57 257.716L1106.69 257.687C1106.68 257.651 1106.66 257.621 1106.62 257.604C1106.59 257.588 1106.55 257.587 1106.52 257.601L1106.57 257.716ZM1101.84 260.426L1101.77 260.324C1101.74 260.346 1101.72 260.38 1101.72 260.417L1101.84 260.426ZM1112.11 257.725L1112.18 257.623C1112.14 257.596 1112.09 257.592 1112.05 257.614C1112.01 257.635 1111.99 257.677 1111.98 257.724L1112.11 257.725ZM1113.27 259.652L1113.14 259.651L1113.14 259.651L1113.27 259.652ZM1112.05 264.465L1111.92 264.464C1111.92 264.505 1111.94 264.544 1111.97 264.567L1112.05 264.465ZM1113.2 266.392L1113.08 266.39C1113.08 266.459 1113.13 266.516 1113.2 266.517C1113.27 266.517 1113.33 266.462 1113.33 266.393L1113.2 266.392ZM1099.24 262.422C1099.32 262.518 1099.32 262.518 1099.32 262.518C1099.32 262.518 1099.32 262.518 1099.32 262.518C1099.32 262.518 1099.32 262.518 1099.32 262.518C1099.33 262.518 1099.33 262.518 1099.33 262.518C1099.33 262.517 1099.33 262.517 1099.33 262.516C1099.33 262.514 1099.33 262.511 1099.34 262.507C1099.35 262.499 1099.36 262.487 1099.38 262.472C1099.42 262.442 1099.47 262.397 1099.54 262.341C1099.68 262.228 1099.88 262.068 1100.12 261.879C1100.6 261.499 1101.24 261.002 1101.91 260.529L1101.77 260.325C1101.1 260.801 1100.44 261.302 1099.96 261.683C1099.72 261.873 1099.52 262.034 1099.38 262.147C1099.31 262.204 1099.26 262.249 1099.22 262.279C1099.2 262.295 1099.19 262.306 1099.18 262.314C1099.17 262.318 1099.17 262.321 1099.17 262.323C1099.17 262.324 1099.17 262.325 1099.17 262.326C1099.17 262.326 1099.16 262.326 1099.16 262.326C1099.16 262.326 1099.16 262.326 1099.16 262.326C1099.16 262.326 1099.16 262.327 1099.16 262.327C1099.16 262.327 1099.16 262.327 1099.24 262.422ZM1099.31 269.164L1099.37 262.424L1099.12 262.421L1099.06 269.162L1099.31 269.164ZM1101.71 267.065C1101.03 267.541 1100.38 268.042 1099.9 268.423C1099.66 268.613 1099.46 268.774 1099.32 268.888C1099.25 268.944 1099.2 268.989 1099.16 269.02C1099.14 269.035 1099.13 269.047 1099.12 269.055C1099.11 269.059 1099.11 269.062 1099.11 269.064C1099.1 269.065 1099.1 269.066 1099.1 269.066C1099.1 269.066 1099.1 269.067 1099.1 269.067C1099.1 269.067 1099.1 269.067 1099.1 269.067C1099.1 269.067 1099.1 269.067 1099.1 269.067C1099.1 269.067 1099.1 269.067 1099.18 269.163C1099.26 269.259 1099.26 269.259 1099.26 269.259C1099.26 269.259 1099.26 269.259 1099.26 269.259C1099.26 269.259 1099.26 269.259 1099.26 269.259C1099.26 269.259 1099.26 269.258 1099.26 269.258C1099.26 269.258 1099.26 269.257 1099.27 269.256C1099.27 269.254 1099.27 269.251 1099.28 269.247C1099.29 269.239 1099.3 269.228 1099.32 269.213C1099.35 269.182 1099.41 269.138 1099.48 269.081C1099.62 268.969 1099.81 268.809 1100.05 268.619C1100.53 268.24 1101.18 267.742 1101.85 267.269L1101.71 267.065ZM1101.66 267.165L1101.66 267.166L1101.91 267.168L1101.91 267.168L1101.66 267.165ZM1101.85 267.269C1103.2 266.322 1104.39 265.506 1106.55 264.571L1106.46 264.342C1104.27 265.286 1103.06 266.113 1101.71 267.064L1101.85 267.269ZM1106.38 264.485L1106.38 264.485L1106.63 264.428L1106.63 264.428L1106.38 264.485ZM1106.55 264.572C1108.71 263.642 1110.74 263.699 1111.97 264.568L1112.12 264.363C1110.79 263.425 1108.65 263.394 1106.46 264.342L1106.55 264.572ZM1112.17 264.467L1112.23 257.726L1111.98 257.724L1111.92 264.464L1112.17 264.467ZM1112.18 257.623C1110.85 256.685 1108.72 256.653 1106.52 257.602L1106.62 257.831C1108.77 256.902 1110.8 256.959 1112.04 257.827L1112.18 257.623ZM1106.69 257.688L1106.69 257.687L1106.45 257.745L1106.45 257.745L1106.69 257.688ZM1106.52 257.601C1104.33 258.546 1103.12 259.373 1101.77 260.324L1101.91 260.529C1103.26 259.581 1104.45 258.765 1106.62 257.831L1106.52 257.601ZM1101.72 260.417L1101.72 260.418L1101.97 260.436L1101.97 260.436L1101.72 260.417ZM1112.04 257.827C1112.82 258.377 1113.15 258.989 1113.14 259.651L1113.39 259.653C1113.4 258.888 1113.01 258.206 1112.18 257.623L1112.04 257.827ZM1112.17 264.466L1112.23 257.726L1111.98 257.724L1111.92 264.464L1112.17 264.466ZM1113.33 266.393C1113.34 265.628 1112.95 264.946 1112.12 264.363L1111.97 264.567C1112.75 265.117 1113.08 265.729 1113.08 266.39L1113.33 266.393ZM1113.14 259.651L1113.08 266.39L1113.33 266.393L1113.39 259.653L1113.14 259.651ZM1113.08 266.39L1113.08 266.391L1113.33 266.394L1113.33 266.393L1113.08 266.39Z" fill="black"/>
<path fill-rule="evenodd" clip-rule="evenodd" d="M1108.98 269.983C1108.98 269.983 1111.36 268.115 1113.39 266.794L1113.39 266.794C1115.43 265.474 1117.44 264.593 1118.46 264.283L1118.46 264.283C1119.47 263.972 1121.38 263.525 1122.9 264.662L1122.9 264.662C1123.67 265.245 1123.93 265.854 1123.92 266.435L1123.86 273.176C1123.86 272.595 1123.61 271.986 1122.83 271.402L1122.83 271.402C1121.32 270.266 1119.41 270.713 1118.39 271.023L1118.39 271.023C1117.37 271.333 1115.36 272.214 1113.33 273.535L1113.33 273.534C1111.3 274.856 1108.92 276.723 1108.92 276.723L1108.98 269.983Z" fill="#D98F00"/>
<path d="M1113.39 266.794L1113.52 266.795C1113.52 266.749 1113.49 266.706 1113.45 266.684C1113.41 266.662 1113.36 266.664 1113.32 266.689L1113.39 266.794ZM1108.98 269.983L1108.9 269.885C1108.87 269.908 1108.86 269.944 1108.86 269.982L1108.98 269.983ZM1113.39 266.794L1113.27 266.793C1113.27 266.839 1113.29 266.882 1113.33 266.904C1113.37 266.926 1113.42 266.924 1113.46 266.899L1113.39 266.794ZM1118.46 264.283L1118.58 264.28C1118.58 264.241 1118.56 264.204 1118.53 264.181C1118.5 264.159 1118.46 264.152 1118.42 264.163L1118.46 264.283ZM1118.46 264.283L1118.33 264.286C1118.33 264.325 1118.35 264.361 1118.38 264.384C1118.41 264.407 1118.45 264.414 1118.49 264.402L1118.46 264.283ZM1122.9 264.662L1123.02 264.663C1123.02 264.623 1123 264.586 1122.97 264.562L1122.9 264.662ZM1122.9 264.662L1122.77 264.66C1122.77 264.7 1122.79 264.738 1122.82 264.762L1122.9 264.662ZM1123.92 266.435L1124.05 266.437L1124.05 266.437L1123.92 266.435ZM1123.86 273.176L1123.73 273.175C1123.73 273.244 1123.79 273.3 1123.86 273.301C1123.93 273.302 1123.98 273.246 1123.98 273.177L1123.86 273.176ZM1122.83 271.402L1122.71 271.401C1122.71 271.441 1122.73 271.478 1122.76 271.502L1122.83 271.402ZM1122.83 271.402L1122.96 271.403C1122.96 271.363 1122.94 271.326 1122.91 271.302L1122.83 271.402ZM1118.39 271.023L1118.27 271.026C1118.27 271.065 1118.29 271.102 1118.32 271.125C1118.35 271.148 1118.39 271.154 1118.43 271.143L1118.39 271.023ZM1118.39 271.023L1118.52 271.021C1118.52 270.981 1118.5 270.945 1118.47 270.922C1118.43 270.899 1118.39 270.892 1118.36 270.904L1118.39 271.023ZM1113.33 273.535L1113.2 273.534C1113.2 273.58 1113.23 273.622 1113.27 273.644C1113.31 273.667 1113.36 273.665 1113.4 273.64L1113.33 273.535ZM1113.33 273.534L1113.45 273.536C1113.46 273.49 1113.43 273.447 1113.39 273.425C1113.35 273.403 1113.3 273.405 1113.26 273.43L1113.33 273.534ZM1108.92 276.723L1108.79 276.722C1108.79 276.77 1108.82 276.814 1108.86 276.836C1108.91 276.857 1108.96 276.851 1108.99 276.822L1108.92 276.723ZM1113.32 266.689C1112.3 267.352 1111.2 268.151 1110.35 268.784C1109.92 269.1 1109.56 269.375 1109.31 269.571C1109.18 269.669 1109.08 269.748 1109.01 269.802C1108.98 269.828 1108.95 269.849 1108.93 269.863C1108.92 269.87 1108.92 269.876 1108.91 269.879C1108.91 269.881 1108.91 269.882 1108.91 269.883C1108.9 269.884 1108.9 269.884 1108.9 269.884C1108.9 269.884 1108.9 269.885 1108.9 269.885C1108.9 269.885 1108.9 269.885 1108.9 269.885C1108.9 269.885 1108.9 269.885 1108.98 269.983C1109.06 270.081 1109.06 270.081 1109.06 270.081C1109.06 270.081 1109.06 270.081 1109.06 270.081C1109.06 270.081 1109.06 270.081 1109.06 270.081C1109.06 270.081 1109.06 270.08 1109.06 270.08C1109.06 270.079 1109.06 270.078 1109.06 270.076C1109.07 270.073 1109.08 270.067 1109.08 270.06C1109.1 270.046 1109.13 270.026 1109.16 269.999C1109.23 269.945 1109.33 269.867 1109.46 269.77C1109.71 269.574 1110.08 269.3 1110.5 268.984C1111.35 268.353 1112.45 267.557 1113.46 266.899L1113.32 266.689ZM1113.52 266.795L1113.52 266.795L1113.27 266.793L1113.27 266.793L1113.52 266.795ZM1113.46 266.899C1115.49 265.584 1117.49 264.708 1118.49 264.402L1118.42 264.163C1117.39 264.477 1115.37 265.364 1113.32 266.689L1113.46 266.899ZM1118.33 264.286L1118.33 264.286L1118.58 264.28L1118.58 264.28L1118.33 264.286ZM1118.49 264.402C1119.51 264.091 1121.36 263.666 1122.82 264.762L1122.97 264.562C1121.4 263.385 1119.44 263.853 1118.42 264.163L1118.49 264.402ZM1122.77 264.66L1122.77 264.66L1123.02 264.663L1123.02 264.663L1122.77 264.66ZM1122.82 264.762C1123.57 265.325 1123.8 265.899 1123.8 266.434L1124.05 266.437C1124.05 265.809 1123.78 265.165 1122.97 264.562L1122.82 264.762ZM1123.8 266.434L1123.73 273.175L1123.98 273.177L1124.05 266.437L1123.8 266.434ZM1123.98 273.177C1123.99 272.55 1123.71 271.906 1122.91 271.302L1122.76 271.502C1123.51 272.066 1123.74 272.639 1123.73 273.175L1123.98 273.177ZM1122.96 271.403L1122.96 271.403L1122.71 271.401L1122.71 271.401L1122.96 271.403ZM1122.91 271.302C1121.34 270.125 1119.37 270.593 1118.36 270.904L1118.43 271.143C1119.45 270.832 1121.3 270.407 1122.76 271.502L1122.91 271.302ZM1118.52 271.021L1118.52 271.021L1118.27 271.026L1118.27 271.026L1118.52 271.021ZM1118.36 270.904C1117.33 271.218 1115.3 272.104 1113.26 273.43L1113.4 273.64C1115.42 272.324 1117.42 271.449 1118.43 271.143L1118.36 270.904ZM1113.45 273.536L1113.45 273.536L1113.2 273.533L1113.2 273.534L1113.45 273.536ZM1108.92 276.723C1108.99 276.822 1108.99 276.822 1108.99 276.822C1108.99 276.822 1108.99 276.822 1108.99 276.822C1109 276.822 1109 276.822 1109 276.821C1109 276.821 1109 276.821 1109 276.82C1109 276.82 1109 276.818 1109 276.816C1109.01 276.813 1109.01 276.808 1109.02 276.801C1109.04 276.787 1109.07 276.766 1109.1 276.739C1109.17 276.686 1109.27 276.608 1109.4 276.51C1109.65 276.315 1110.01 276.04 1110.44 275.725C1111.28 275.093 1112.38 274.298 1113.4 273.639L1113.26 273.43C1112.24 274.092 1111.14 274.892 1110.29 275.524C1109.86 275.841 1109.5 276.116 1109.24 276.312C1109.12 276.41 1109.02 276.488 1108.95 276.542C1108.91 276.569 1108.89 276.59 1108.87 276.604C1108.86 276.611 1108.85 276.616 1108.85 276.62C1108.85 276.621 1108.84 276.623 1108.84 276.624C1108.84 276.624 1108.84 276.625 1108.84 276.625C1108.84 276.625 1108.84 276.625 1108.84 276.625C1108.84 276.625 1108.84 276.625 1108.84 276.625C1108.84 276.625 1108.84 276.625 1108.92 276.723ZM1108.86 269.982L1108.79 276.722L1109.04 276.725L1109.11 269.984L1108.86 269.982Z" fill="black"/>
<path d="M1084.16 268.579L1087.38 271.001L1087.32 277.742L1084.09 275.32L1084.16 268.579Z" fill="#D98F00" stroke="black" stroke-width="0.25" stroke-linejoin="round"/>
<path fill-rule="evenodd" clip-rule="evenodd" d="M1133.52 263.905C1133.79 263.246 1133.92 262.633 1133.93 262.061L1133.86 268.8C1133.86 269.372 1133.73 269.985 1133.45 270.646L1133.45 270.646C1132.31 273.344 1129.99 275.395 1128.9 276.362L1128.9 276.198L1128.82 276.436C1128.3 276.896 1127.37 277.657 1126.35 278.459L1126.42 271.718C1127.43 270.916 1128.36 270.155 1128.88 269.695L1128.96 269.662L1128.96 269.621C1130.06 268.655 1132.38 266.604 1133.51 263.905L1133.52 263.905Z" fill="#FFB700"/>
<path d="M1133.93 262.061L1134.05 262.062C1134.05 261.993 1134 261.937 1133.93 261.936C1133.86 261.936 1133.8 261.991 1133.8 262.06L1133.93 262.061ZM1133.52 263.905L1133.4 263.857C1133.4 263.866 1133.39 263.875 1133.39 263.884L1133.52 263.905ZM1133.86 268.8L1133.74 268.799L1133.74 268.799L1133.86 268.8ZM1133.45 270.646L1133.34 270.597C1133.33 270.606 1133.33 270.615 1133.33 270.625L1133.45 270.646ZM1133.45 270.646L1133.57 270.695C1133.57 270.686 1133.57 270.676 1133.58 270.667L1133.45 270.646ZM1128.9 276.362L1128.78 276.36C1128.77 276.41 1128.8 276.455 1128.85 276.475C1128.89 276.496 1128.95 276.488 1128.98 276.455L1128.9 276.362ZM1128.9 276.198L1129.03 276.199C1129.03 276.138 1128.98 276.086 1128.92 276.075C1128.86 276.064 1128.8 276.098 1128.78 276.156L1128.9 276.198ZM1128.82 276.436L1128.9 276.529C1128.91 276.515 1128.93 276.498 1128.93 276.478L1128.82 276.436ZM1126.35 278.459L1126.23 278.458C1126.23 278.506 1126.26 278.55 1126.3 278.571C1126.34 278.592 1126.39 278.587 1126.43 278.557L1126.35 278.459ZM1126.42 271.718L1126.34 271.62C1126.31 271.644 1126.29 271.679 1126.29 271.717L1126.42 271.718ZM1128.88 269.695L1128.83 269.579C1128.82 269.585 1128.81 269.592 1128.8 269.602L1128.88 269.695ZM1128.96 269.662L1129.01 269.778C1129.06 269.759 1129.09 269.714 1129.09 269.663L1128.96 269.662ZM1128.96 269.621L1128.88 269.528C1128.85 269.551 1128.84 269.585 1128.84 269.62L1128.96 269.621ZM1133.51 263.905L1133.63 263.954C1133.63 263.945 1133.64 263.936 1133.64 263.926L1133.51 263.905ZM1133.8 262.06C1133.8 262.614 1133.67 263.21 1133.4 263.857L1133.63 263.954C1133.91 263.281 1134.05 262.652 1134.05 262.062L1133.8 262.06ZM1133.99 268.801L1134.05 262.062L1133.8 262.06L1133.74 268.799L1133.99 268.801ZM1133.57 270.694C1133.85 270.021 1133.98 269.392 1133.99 268.801L1133.74 268.799C1133.73 269.353 1133.61 269.95 1133.34 270.597L1133.57 270.694ZM1133.58 270.667L1133.58 270.667L1133.33 270.625L1133.33 270.625L1133.58 270.667ZM1128.98 276.455C1130.07 275.49 1132.42 273.423 1133.57 270.695L1133.34 270.597C1132.21 273.266 1129.91 275.3 1128.82 276.268L1128.98 276.455ZM1128.78 276.197L1128.78 276.36L1129.03 276.363L1129.03 276.199L1128.78 276.197ZM1128.78 276.156L1128.7 276.393L1128.93 276.478L1129.02 276.24L1128.78 276.156ZM1128.73 276.342C1128.22 276.8 1127.29 277.559 1126.28 278.361L1126.43 278.557C1127.45 277.754 1128.38 276.992 1128.9 276.529L1128.73 276.342ZM1126.48 278.46L1126.54 271.719L1126.29 271.717L1126.23 278.458L1126.48 278.46ZM1126.49 271.816C1127.51 271.014 1128.44 270.251 1128.96 269.789L1128.8 269.602C1128.28 270.059 1127.35 270.818 1126.34 271.62L1126.49 271.816ZM1128.93 269.811L1129.01 269.778L1128.92 269.546L1128.83 269.579L1128.93 269.811ZM1128.84 269.62L1128.84 269.661L1129.09 269.663L1129.09 269.622L1128.84 269.62ZM1133.4 263.857C1132.27 266.526 1129.98 268.56 1128.88 269.528L1129.05 269.715C1130.14 268.75 1132.48 266.682 1133.63 263.954L1133.4 263.857ZM1133.39 263.884L1133.39 263.885L1133.64 263.926L1133.64 263.926L1133.39 263.884ZM1133.8 262.058L1133.8 262.06L1134.05 262.062L1134.05 262.061L1133.8 262.058Z" fill="black"/>
<path d="M1119.27 277.006L1122.4 274.746L1122.33 281.486L1119.21 283.746L1119.27 277.006Z" fill="#FFB700" stroke="black" stroke-width="0.25" stroke-linejoin="round"/>
<path d="M1122.4 274.746L1127.36 278.474L1127.29 285.214L1122.33 281.487L1122.4 274.746Z" fill="#D98F00" stroke="black" stroke-width="0.25" stroke-linejoin="round"/>
<path d="M1127.36 278.473L1131.46 275.506L1131.4 282.247L1127.3 285.213L1127.36 278.473Z" fill="#FFB700" stroke="black" stroke-width="0.25" stroke-linejoin="round"/>
<path fill-rule="evenodd" clip-rule="evenodd" d="M1089.75 269.286L1087.38 271.001L1087.32 277.742L1089.69 276.026L1089.75 269.286ZM1089.75 269.285C1090.4 268.818 1091.61 268.027 1092.51 267.984L1092.51 267.984C1093.41 267.941 1093.71 268.042 1094.52 268.647L1094.52 268.647L1107.37 278.297L1107.37 278.298L1107.37 278.297C1107.63 278.496 1107.9 278.78 1107.89 279.139L1107.83 285.879C1107.83 285.52 1107.57 285.237 1107.3 285.037L1107.3 285.036L1107.3 285.037L1094.46 275.387L1094.46 275.387C1093.65 274.783 1093.35 274.682 1092.45 274.725L1092.45 274.725C1091.54 274.767 1090.34 275.558 1089.69 276.026L1089.75 269.285Z" fill="#FFB700"/>
<path d="M1087.38 271.001L1087.31 270.9C1087.28 270.923 1087.26 270.96 1087.26 271L1087.38 271.001ZM1089.75 269.286L1089.88 269.287C1089.88 269.24 1089.85 269.196 1089.81 269.175C1089.77 269.153 1089.72 269.157 1089.68 269.184L1089.75 269.286ZM1087.32 277.742L1087.19 277.741C1087.19 277.788 1087.22 277.831 1087.26 277.853C1087.3 277.874 1087.35 277.871 1087.39 277.843L1087.32 277.742ZM1089.69 276.026L1089.76 276.127C1089.8 276.104 1089.82 276.067 1089.82 276.027L1089.69 276.026ZM1092.51 267.984L1092.63 267.981C1092.63 267.948 1092.62 267.916 1092.59 267.893C1092.57 267.87 1092.54 267.858 1092.5 267.859L1092.51 267.984ZM1089.75 269.285L1089.68 269.184C1089.65 269.207 1089.63 269.244 1089.63 269.284L1089.75 269.285ZM1092.51 267.984L1092.38 267.987C1092.38 268.021 1092.4 268.053 1092.42 268.076C1092.45 268.099 1092.48 268.111 1092.51 268.109L1092.51 267.984ZM1094.52 268.647L1094.44 268.747C1094.48 268.775 1094.53 268.78 1094.57 268.759C1094.62 268.738 1094.64 268.695 1094.64 268.648L1094.52 268.647ZM1094.52 268.647L1094.59 268.547C1094.56 268.518 1094.51 268.514 1094.46 268.535C1094.42 268.556 1094.39 268.599 1094.39 268.646L1094.52 268.647ZM1107.37 278.297L1107.49 278.298C1107.49 278.258 1107.47 278.221 1107.44 278.197L1107.37 278.297ZM1107.37 278.298L1107.24 278.297C1107.24 278.362 1107.29 278.416 1107.36 278.422C1107.42 278.428 1107.48 278.383 1107.49 278.318L1107.37 278.298ZM1107.37 278.297L1107.44 278.197C1107.41 278.17 1107.36 278.164 1107.32 278.18C1107.28 278.197 1107.25 278.233 1107.24 278.276L1107.37 278.297ZM1107.89 279.139L1107.77 279.137L1107.77 279.137L1107.89 279.139ZM1107.83 285.879L1107.7 285.878C1107.7 285.947 1107.76 286.003 1107.83 286.004C1107.9 286.004 1107.95 285.949 1107.95 285.88L1107.83 285.879ZM1107.3 285.037L1107.18 285.057C1107.19 285.089 1107.2 285.117 1107.23 285.137L1107.3 285.037ZM1107.3 285.036L1107.43 285.016C1107.42 284.952 1107.36 284.906 1107.3 284.911C1107.23 284.916 1107.18 284.97 1107.18 285.035L1107.3 285.036ZM1107.3 285.037L1107.23 285.137C1107.27 285.166 1107.32 285.17 1107.36 285.15C1107.4 285.129 1107.43 285.086 1107.43 285.039L1107.3 285.037ZM1094.46 275.387L1094.53 275.287C1094.49 275.259 1094.44 275.254 1094.4 275.275C1094.36 275.296 1094.33 275.339 1094.33 275.386L1094.46 275.387ZM1094.46 275.387L1094.38 275.487C1094.42 275.516 1094.47 275.52 1094.51 275.499C1094.55 275.479 1094.58 275.436 1094.58 275.389L1094.46 275.387ZM1092.45 274.725L1092.32 274.724C1092.32 274.758 1092.33 274.791 1092.36 274.815C1092.38 274.839 1092.42 274.851 1092.45 274.85L1092.45 274.725ZM1092.45 274.725L1092.57 274.726C1092.57 274.691 1092.56 274.658 1092.53 274.635C1092.51 274.611 1092.47 274.598 1092.44 274.6L1092.45 274.725ZM1089.69 276.026L1089.57 276.025C1089.57 276.072 1089.59 276.115 1089.63 276.137C1089.68 276.158 1089.73 276.155 1089.76 276.127L1089.69 276.026ZM1087.45 271.103L1089.83 269.387L1089.68 269.184L1087.31 270.9L1087.45 271.103ZM1087.44 277.743L1087.51 271.002L1087.26 271L1087.19 277.741L1087.44 277.743ZM1089.62 275.925L1087.24 277.64L1087.39 277.843L1089.76 276.127L1089.62 275.925ZM1089.63 269.285L1089.57 276.025L1089.82 276.027L1089.88 269.287L1089.63 269.285ZM1092.5 267.859C1092.02 267.882 1091.48 268.101 1090.98 268.365C1090.47 268.63 1090.01 268.949 1089.68 269.184L1089.83 269.387C1090.15 269.154 1090.61 268.843 1091.09 268.586C1091.58 268.326 1092.09 268.129 1092.51 268.109L1092.5 267.859ZM1092.63 267.982L1092.63 267.981L1092.38 267.987L1092.38 267.987L1092.63 267.982ZM1094.59 268.547C1094.19 268.244 1093.9 268.056 1093.59 267.954C1093.28 267.851 1092.96 267.838 1092.5 267.859L1092.51 268.109C1092.96 268.088 1093.24 268.103 1093.51 268.191C1093.78 268.28 1094.04 268.445 1094.44 268.747L1094.59 268.547ZM1094.39 268.646L1094.39 268.646L1094.64 268.648L1094.64 268.647L1094.39 268.646ZM1107.44 278.197L1094.59 268.547L1094.44 268.747L1107.29 278.397L1107.44 278.197ZM1107.49 278.299L1107.49 278.298L1107.24 278.296L1107.24 278.297L1107.49 278.299ZM1107.49 278.318L1107.49 278.317L1107.24 278.276L1107.24 278.277L1107.49 278.318ZM1107.29 278.397C1107.55 278.592 1107.77 278.843 1107.77 279.137L1108.02 279.14C1108.02 278.717 1107.71 278.401 1107.44 278.197L1107.29 278.397ZM1107.77 279.137L1107.7 285.878L1107.95 285.88L1108.02 279.14L1107.77 279.137ZM1107.95 285.88C1107.96 285.458 1107.65 285.141 1107.38 284.937L1107.23 285.137C1107.49 285.332 1107.71 285.583 1107.7 285.878L1107.95 285.88ZM1107.43 285.017L1107.43 285.016L1107.18 285.056L1107.18 285.057L1107.43 285.017ZM1107.43 285.039L1107.43 285.037L1107.18 285.035L1107.18 285.036L1107.43 285.039ZM1094.38 275.487L1107.23 285.137L1107.38 284.938L1094.53 275.287L1094.38 275.487ZM1094.58 275.389L1094.58 275.388L1094.33 275.386L1094.33 275.386L1094.58 275.389ZM1092.45 274.85C1092.9 274.828 1093.18 274.844 1093.45 274.932C1093.72 275.021 1093.98 275.186 1094.38 275.487L1094.53 275.287C1094.13 274.984 1093.84 274.797 1093.53 274.694C1093.21 274.592 1092.89 274.578 1092.44 274.6L1092.45 274.85ZM1092.32 274.723L1092.32 274.724L1092.57 274.726L1092.57 274.726L1092.32 274.723ZM1089.76 276.127C1090.09 275.895 1090.54 275.584 1091.03 275.326C1091.52 275.067 1092.03 274.869 1092.45 274.849L1092.44 274.6C1091.96 274.622 1091.41 274.842 1090.91 275.105C1090.41 275.371 1089.94 275.689 1089.62 275.924L1089.76 276.127ZM1089.63 269.284L1089.57 276.025L1089.82 276.027L1089.88 269.286L1089.63 269.284ZM1107.7 285.877L1107.7 285.878L1107.95 285.881L1107.95 285.88L1107.7 285.877Z" fill="black"/>
<path d="M1115.17 279.972L1120.13 283.7L1120.07 290.44L1115.1 286.713L1115.17 279.972Z" fill="#D98F00" stroke="black" stroke-width="0.25" stroke-linejoin="round"/>
<path d="M1120.13 283.7L1124.23 280.733L1124.17 287.473L1120.07 290.44L1120.13 283.7Z" fill="#FFB700" stroke="black" stroke-width="0.25" stroke-linejoin="round"/>
<path d="M1107.09 285.81L1115.17 279.973L1115.1 286.713L1107.03 292.55L1107.09 285.81Z" fill="#FFB700" stroke="black" stroke-width="0.25" stroke-linejoin="round"/>
<path d="M1104.21 282.399L1107.09 285.81L1107.03 292.55L1104.15 289.139L1104.21 282.399Z" fill="#D98F00" stroke="black" stroke-width="0.25" stroke-linejoin="round"/>
<path fill-rule="evenodd" clip-rule="evenodd" d="M1124.55 256.123C1122.35 256.536 1120.04 257.738 1120.04 257.738C1120.04 257.738 1120.98 255.962 1120.93 254.907C1120.88 253.852 1120.08 252.742 1119.54 252.253C1119.01 251.765 1116.65 249.793 1112.64 250.572C1109.54 251.175 1106.82 252.49 1103.62 254.594L1098.58 250.812L1094.48 253.778L1099.46 257.516L1096.33 259.776L1091.36 256.038L1087.25 259.005L1092.23 262.743L1084.16 268.579L1087.38 271.001L1089.75 269.286C1090.4 268.818 1091.61 268.027 1092.51 267.985C1093.41 267.941 1093.71 268.043 1094.52 268.647L1107.37 278.298C1107.67 278.526 1107.97 278.865 1107.87 279.3C1107.78 279.735 1107.49 280.028 1106.66 280.624L1104.21 282.398L1107.09 285.81L1115.17 279.973L1120.13 283.7L1124.23 280.734L1119.27 277.006L1122.4 274.746L1127.36 278.474L1131.46 275.507L1126.42 271.718C1127.43 270.916 1128.36 270.155 1128.88 269.695L1128.96 269.621C1130.06 268.654 1132.38 266.604 1133.52 263.905C1134.68 261.136 1133.19 259.197 1131.19 257.608C1129.19 256.019 1126.74 255.711 1124.55 256.123ZM1099.24 262.423C1099.24 262.423 1100.5 261.376 1101.84 260.427C1103.19 259.478 1104.39 258.656 1106.57 257.717C1108.74 256.778 1110.83 256.822 1112.11 257.725C1113.39 258.629 1113.54 259.739 1112.88 260.994C1112.22 262.249 1110.86 263.654 1109.35 264.808C1107.86 265.962 1105.82 267.361 1105.82 267.361L1099.24 262.423ZM1119.86 271.784C1121.49 270.457 1122.93 268.906 1123.44 267.968C1123.94 267.03 1124.41 265.798 1122.9 264.662C1121.38 263.526 1119.47 263.972 1118.46 264.283C1117.44 264.593 1115.43 265.474 1113.39 266.795C1111.36 268.116 1108.98 269.984 1108.98 269.984L1115.6 274.951C1115.6 274.951 1118.23 273.112 1119.86 271.784Z" fill="white"/>
<path d="M1120.04 257.738L1119.9 257.722L1119.75 257.999L1120.11 257.816L1120.04 257.738ZM1124.55 256.123L1124.54 256.024L1124.54 256.024L1124.55 256.123ZM1120.93 254.907L1120.79 254.933L1120.79 254.933L1120.93 254.907ZM1119.54 252.253L1119.67 252.181L1119.67 252.181L1119.54 252.253ZM1112.64 250.572L1112.65 250.671L1112.65 250.671L1112.64 250.572ZM1103.62 254.594L1103.5 254.672L1103.59 254.738L1103.71 254.661L1103.62 254.594ZM1098.58 250.812L1098.7 250.734L1098.61 250.664L1098.49 250.749L1098.58 250.812ZM1094.48 253.778L1094.39 253.716L1094.28 253.793L1094.36 253.856L1094.48 253.778ZM1099.46 257.516L1099.55 257.579L1099.66 257.502L1099.57 257.438L1099.46 257.516ZM1096.33 259.776L1096.22 259.854L1096.31 259.924L1096.43 259.839L1096.33 259.776ZM1091.36 256.038L1091.47 255.96L1091.38 255.891L1091.26 255.976L1091.36 256.038ZM1087.25 259.005L1087.16 258.942L1087.05 259.019L1087.14 259.083L1087.25 259.005ZM1092.23 262.743L1092.32 262.805L1092.43 262.728L1092.35 262.665L1092.23 262.743ZM1084.16 268.579L1084.06 268.517L1083.96 268.594L1084.04 268.657L1084.16 268.579ZM1087.38 271.001L1087.26 271.079L1087.36 271.149L1087.47 271.064L1087.38 271.001ZM1089.75 269.286L1089.66 269.223L1089.66 269.223L1089.75 269.286ZM1092.51 267.985L1092.49 268.087L1092.49 268.087L1092.51 267.985ZM1094.52 268.647L1094.4 268.725L1094.4 268.725L1094.52 268.647ZM1107.37 278.298L1107.48 278.22L1107.48 278.22L1107.37 278.298ZM1107.87 279.3L1107.73 279.306L1107.73 279.306L1107.87 279.3ZM1106.66 280.624L1106.76 280.687L1106.76 280.687L1106.66 280.624ZM1104.21 282.398L1104.12 282.336L1104.03 282.401L1104.08 282.464L1104.21 282.398ZM1107.09 285.81L1106.96 285.875L1107.05 285.974L1107.19 285.872L1107.09 285.81ZM1115.17 279.973L1115.28 279.895L1115.19 279.825L1115.07 279.91L1115.17 279.973ZM1120.13 283.7L1120.01 283.778L1120.11 283.848L1120.22 283.763L1120.13 283.7ZM1124.23 280.734L1124.33 280.796L1124.43 280.719L1124.35 280.656L1124.23 280.734ZM1119.27 277.006L1119.18 276.944L1119.07 277.021L1119.15 277.084L1119.27 277.006ZM1122.4 274.746L1122.51 274.668L1122.42 274.599L1122.3 274.684L1122.4 274.746ZM1127.36 278.474L1127.24 278.552L1127.33 278.621L1127.45 278.536L1127.36 278.474ZM1131.46 275.507L1131.56 275.569L1131.66 275.492L1131.58 275.429L1131.46 275.507ZM1126.42 271.718L1126.32 271.66L1126.22 271.736L1126.3 271.796L1126.42 271.718ZM1128.88 269.695L1128.77 269.643L1128.77 269.643L1128.88 269.695ZM1128.96 269.621L1128.86 269.569L1128.86 269.569L1128.96 269.621ZM1133.52 263.905L1133.65 263.914L1133.65 263.914L1133.52 263.905ZM1131.19 257.608L1131.07 257.685L1131.07 257.685L1131.19 257.608ZM1101.84 260.427L1101.75 260.363L1101.75 260.363L1101.84 260.427ZM1099.24 262.423L1099.14 262.368L1099.05 262.443L1099.13 262.501L1099.24 262.423ZM1106.57 257.717L1106.51 257.632L1106.51 257.632L1106.57 257.717ZM1112.11 257.725L1112.22 257.646L1112.22 257.646L1112.11 257.725ZM1112.88 260.994L1113.02 261.01L1113.02 261.01L1112.88 260.994ZM1109.35 264.808L1109.26 264.749L1109.26 264.749L1109.35 264.808ZM1105.82 267.361L1105.71 267.439L1105.8 267.506L1105.91 267.426L1105.82 267.361ZM1123.44 267.968L1123.3 267.951L1123.3 267.951L1123.44 267.968ZM1119.86 271.784L1119.76 271.728L1119.76 271.728L1119.86 271.784ZM1122.9 264.662L1122.78 264.74L1122.78 264.74L1122.9 264.662ZM1118.46 264.283L1118.49 264.376L1118.49 264.376L1118.46 264.283ZM1113.39 266.795L1113.31 266.727L1113.31 266.727L1113.39 266.795ZM1108.98 269.984L1108.88 269.926L1108.78 270.002L1108.86 270.062L1108.98 269.984ZM1115.6 274.951L1115.48 275.029L1115.57 275.097L1115.69 275.015L1115.6 274.951ZM1120.04 257.738C1120.11 257.816 1120.11 257.816 1120.11 257.816C1120.11 257.816 1120.11 257.816 1120.11 257.816C1120.11 257.816 1120.11 257.816 1120.11 257.815C1120.11 257.815 1120.11 257.815 1120.11 257.815C1120.11 257.814 1120.11 257.814 1120.11 257.813C1120.12 257.81 1120.12 257.807 1120.13 257.803C1120.15 257.794 1120.17 257.781 1120.21 257.765C1120.27 257.732 1120.37 257.684 1120.49 257.625C1120.74 257.507 1121.1 257.345 1121.52 257.171C1122.37 256.821 1123.48 256.424 1124.55 256.221L1124.54 256.024C1123.42 256.235 1122.27 256.645 1121.41 257C1120.98 257.178 1120.62 257.342 1120.37 257.463C1120.24 257.523 1120.14 257.572 1120.07 257.606C1120.04 257.623 1120.01 257.637 1119.99 257.646C1119.99 257.651 1119.98 257.654 1119.97 257.657C1119.97 257.658 1119.97 257.659 1119.97 257.659C1119.97 257.66 1119.97 257.66 1119.97 257.66C1119.97 257.66 1119.97 257.66 1119.97 257.66C1119.97 257.66 1119.97 257.66 1119.97 257.66C1119.97 257.66 1119.97 257.66 1120.04 257.738ZM1120.79 254.933C1120.81 255.443 1120.59 256.137 1120.36 256.711C1120.25 256.997 1120.13 257.25 1120.05 257.431C1120 257.522 1119.97 257.595 1119.94 257.645C1119.93 257.67 1119.92 257.689 1119.91 257.702C1119.91 257.709 1119.9 257.714 1119.9 257.717C1119.9 257.718 1119.9 257.72 1119.9 257.72C1119.9 257.721 1119.9 257.721 1119.9 257.721C1119.9 257.721 1119.9 257.721 1119.9 257.722C1119.9 257.722 1119.9 257.722 1119.9 257.722C1119.9 257.722 1119.9 257.722 1120.04 257.738C1120.17 257.754 1120.17 257.754 1120.17 257.754C1120.17 257.754 1120.17 257.754 1120.17 257.754C1120.17 257.754 1120.17 257.754 1120.17 257.754C1120.17 257.754 1120.17 257.753 1120.17 257.753C1120.17 257.752 1120.17 257.751 1120.17 257.749C1120.18 257.745 1120.18 257.74 1120.18 257.733C1120.19 257.72 1120.2 257.7 1120.21 257.674C1120.24 257.623 1120.28 257.549 1120.32 257.457C1120.41 257.272 1120.53 257.015 1120.64 256.725C1120.87 256.148 1121.1 255.426 1121.08 254.882L1120.79 254.933ZM1119.42 252.326C1119.95 252.807 1120.74 253.902 1120.79 254.933L1121.08 254.882C1121.03 253.803 1120.21 252.677 1119.67 252.181L1119.42 252.326ZM1112.65 250.671C1114.61 250.29 1116.16 250.58 1117.3 251.029C1118.44 251.479 1119.16 252.085 1119.42 252.326L1119.67 252.181C1119.4 251.933 1118.66 251.309 1117.48 250.846C1116.31 250.381 1114.68 250.075 1112.63 250.474L1112.65 250.671ZM1103.71 254.661C1106.9 252.564 1109.59 251.265 1112.65 250.671L1112.63 250.474C1109.49 251.084 1106.75 252.416 1103.53 254.527L1103.71 254.661ZM1098.47 250.889L1103.5 254.672L1103.74 254.516L1098.7 250.734L1098.47 250.889ZM1094.58 253.841L1098.68 250.874L1098.49 250.749L1094.39 253.716L1094.58 253.841ZM1099.57 257.438L1094.6 253.7L1094.36 253.856L1099.34 257.594L1099.57 257.438ZM1096.43 259.839L1099.55 257.579L1099.36 257.454L1096.24 259.714L1096.43 259.839ZM1091.24 256.116L1096.22 259.854L1096.45 259.698L1091.47 255.96L1091.24 256.116ZM1087.35 259.067L1091.45 256.101L1091.26 255.976L1087.16 258.942L1087.35 259.067ZM1092.35 262.665L1087.37 258.927L1087.14 259.083L1092.11 262.821L1092.35 262.665ZM1084.25 268.642L1092.32 262.805L1092.14 262.68L1084.06 268.517L1084.25 268.642ZM1087.5 270.923L1084.27 268.501L1084.04 268.657L1087.26 271.079L1087.5 270.923ZM1089.66 269.223L1087.29 270.939L1087.47 271.064L1089.85 269.348L1089.66 269.223ZM1092.53 267.882C1092.03 267.906 1091.47 268.134 1090.96 268.399C1090.46 268.667 1089.99 268.987 1089.66 269.223L1089.85 269.348C1090.17 269.117 1090.62 268.808 1091.11 268.553C1091.59 268.294 1092.09 268.106 1092.49 268.087L1092.53 267.882ZM1094.64 268.569C1094.23 268.267 1093.94 268.081 1093.63 267.979C1093.32 267.874 1092.99 267.86 1092.53 267.882L1092.49 268.087C1092.93 268.066 1093.2 268.081 1093.47 268.168C1093.74 268.256 1094 268.423 1094.4 268.725L1094.64 268.569ZM1107.48 278.22L1094.64 268.569L1094.4 268.725L1107.25 278.376L1107.48 278.22ZM1108.02 279.294C1108.13 278.817 1107.8 278.454 1107.48 278.22L1107.25 278.376C1107.55 278.599 1107.82 278.914 1107.73 279.306L1108.02 279.294ZM1106.76 280.687C1107.17 280.388 1107.46 280.157 1107.66 279.943C1107.86 279.725 1107.97 279.527 1108.02 279.294L1107.73 279.306C1107.68 279.508 1107.6 279.674 1107.42 279.86C1107.25 280.05 1106.98 280.264 1106.57 280.562L1106.76 280.687ZM1104.3 282.461L1106.76 280.687L1106.57 280.562L1104.12 282.336L1104.3 282.461ZM1107.22 285.744L1104.34 282.333L1104.08 282.464L1106.96 285.875L1107.22 285.744ZM1115.07 279.91L1107 285.747L1107.19 285.872L1115.26 280.036L1115.07 279.91ZM1120.25 283.622L1115.28 279.895L1115.05 280.051L1120.01 283.778L1120.25 283.622ZM1124.14 280.671L1120.04 283.638L1120.22 283.763L1124.33 280.796L1124.14 280.671ZM1119.15 277.084L1124.12 280.812L1124.35 280.656L1119.39 276.928L1119.15 277.084ZM1122.3 274.684L1119.18 276.944L1119.36 277.069L1122.49 274.809L1122.3 274.684ZM1127.47 278.396L1122.51 274.668L1122.28 274.824L1127.24 278.552L1127.47 278.396ZM1131.37 275.444L1127.26 278.411L1127.45 278.536L1131.56 275.569L1131.37 275.444ZM1126.3 271.796L1131.35 275.585L1131.58 275.429L1126.53 271.64L1126.3 271.796ZM1128.77 269.643C1128.26 270.1 1127.33 270.858 1126.32 271.66L1126.52 271.776C1127.53 270.973 1128.46 270.21 1128.99 269.747L1128.77 269.643ZM1128.86 269.569L1128.77 269.643L1128.99 269.747L1129.07 269.673L1128.86 269.569ZM1133.38 263.897C1132.25 266.57 1129.95 268.603 1128.86 269.569L1129.07 269.673C1130.17 268.705 1132.51 266.637 1133.65 263.914L1133.38 263.897ZM1131.07 257.685C1133.06 259.267 1134.52 261.176 1133.38 263.897L1133.65 263.914C1134.84 261.096 1133.32 259.128 1131.31 257.532L1131.07 257.685ZM1124.55 256.221C1126.7 255.82 1129.1 256.116 1131.07 257.685L1131.31 257.532C1129.28 255.922 1126.79 255.602 1124.54 256.024L1124.55 256.221ZM1101.75 260.363C1101.08 260.84 1100.42 261.341 1099.94 261.723C1099.7 261.913 1099.5 262.075 1099.36 262.188C1099.29 262.245 1099.24 262.29 1099.2 262.32C1099.18 262.336 1099.17 262.347 1099.16 262.355C1099.15 262.359 1099.15 262.362 1099.15 262.364C1099.14 262.365 1099.14 262.366 1099.14 262.367C1099.14 262.367 1099.14 262.367 1099.14 262.367C1099.14 262.367 1099.14 262.367 1099.14 262.368C1099.14 262.368 1099.14 262.368 1099.14 262.368C1099.14 262.368 1099.14 262.368 1099.24 262.423C1099.35 262.478 1099.35 262.478 1099.35 262.478C1099.35 262.478 1099.35 262.478 1099.35 262.478C1099.35 262.478 1099.35 262.478 1099.35 262.478C1099.35 262.478 1099.35 262.478 1099.35 262.477C1099.35 262.477 1099.35 262.476 1099.35 262.475C1099.35 262.473 1099.36 262.47 1099.36 262.466C1099.37 262.458 1099.39 262.447 1099.4 262.432C1099.44 262.401 1099.49 262.357 1099.56 262.301C1099.7 262.188 1099.9 262.028 1100.14 261.839C1100.62 261.46 1101.27 260.963 1101.94 260.491L1101.75 260.363ZM1106.51 257.632C1104.32 258.58 1103.1 259.411 1101.75 260.363L1101.94 260.491C1103.28 259.544 1104.47 258.732 1106.62 257.801L1106.51 257.632ZM1112.22 257.646C1110.9 256.711 1108.74 256.67 1106.51 257.632L1106.62 257.801C1108.75 256.885 1110.76 256.933 1112 257.805L1112.22 257.646ZM1113.02 261.01C1113.36 260.369 1113.49 259.759 1113.37 259.193C1113.25 258.626 1112.88 258.108 1112.22 257.646L1112 257.805C1112.62 258.247 1112.97 258.736 1113.08 259.264C1113.19 259.792 1113.07 260.364 1112.74 260.978L1113.02 261.01ZM1109.45 264.868C1110.97 263.704 1112.34 262.285 1113.02 261.01L1112.74 260.978C1112.09 262.212 1110.75 263.603 1109.26 264.749L1109.45 264.868ZM1105.82 267.361C1105.91 267.426 1105.91 267.426 1105.91 267.426C1105.91 267.426 1105.91 267.426 1105.91 267.426C1105.91 267.426 1105.91 267.426 1105.91 267.426C1105.91 267.425 1105.91 267.425 1105.91 267.425C1105.92 267.424 1105.92 267.423 1105.92 267.422C1105.92 267.419 1105.93 267.415 1105.94 267.41C1105.95 267.399 1105.97 267.384 1106 267.363C1106.06 267.323 1106.15 267.263 1106.26 267.189C1106.47 267.039 1106.77 266.828 1107.12 266.581C1107.82 266.087 1108.7 265.447 1109.45 264.868L1109.26 264.749C1108.51 265.324 1107.63 265.96 1106.93 266.454C1106.59 266.7 1106.29 266.911 1106.07 267.06C1105.97 267.134 1105.88 267.193 1105.82 267.234C1105.79 267.254 1105.77 267.269 1105.76 267.28C1105.75 267.285 1105.74 267.289 1105.74 267.292C1105.74 267.293 1105.73 267.294 1105.73 267.295C1105.73 267.295 1105.73 267.295 1105.73 267.296C1105.73 267.296 1105.73 267.296 1105.73 267.296C1105.73 267.296 1105.73 267.296 1105.73 267.296C1105.73 267.296 1105.73 267.296 1105.82 267.361ZM1099.13 262.501L1105.71 267.439L1105.94 267.283L1099.36 262.345L1099.13 262.501ZM1123.3 267.951C1122.81 268.869 1121.38 270.406 1119.76 271.728L1119.96 271.841C1121.6 270.508 1123.06 268.943 1123.57 267.985L1123.3 267.951ZM1122.78 264.74C1123.52 265.294 1123.77 265.867 1123.78 266.412C1123.78 266.96 1123.55 267.486 1123.3 267.951L1123.57 267.985C1123.82 267.512 1124.08 266.953 1124.07 266.366C1124.06 265.777 1123.79 265.166 1123.01 264.584L1122.78 264.74ZM1118.49 264.376C1118.99 264.223 1119.7 264.04 1120.46 264.032C1121.22 264.024 1122.05 264.188 1122.78 264.74L1123.01 264.584C1122.23 263.999 1121.35 263.819 1120.52 263.827C1119.7 263.836 1118.94 264.033 1118.42 264.191L1118.49 264.376ZM1113.48 266.863C1115.5 265.55 1117.49 264.679 1118.49 264.376L1118.42 264.19C1117.38 264.508 1115.35 265.398 1113.31 266.727L1113.48 266.863ZM1108.98 269.984C1109.08 270.042 1109.08 270.042 1109.08 270.042C1109.08 270.042 1109.08 270.042 1109.08 270.042C1109.08 270.042 1109.08 270.042 1109.08 270.042C1109.08 270.042 1109.08 270.041 1109.08 270.041C1109.08 270.04 1109.08 270.039 1109.09 270.037C1109.09 270.034 1109.1 270.028 1109.11 270.021C1109.12 270.007 1109.15 269.987 1109.19 269.96C1109.25 269.907 1109.36 269.829 1109.48 269.731C1109.74 269.536 1110.1 269.261 1110.52 268.946C1111.37 268.315 1112.47 267.52 1113.48 266.863L1113.31 266.727C1112.29 267.391 1111.18 268.191 1110.33 268.824C1109.9 269.14 1109.54 269.416 1109.29 269.612C1109.16 269.71 1109.06 269.788 1108.99 269.842C1108.95 269.869 1108.93 269.89 1108.91 269.904C1108.9 269.911 1108.89 269.916 1108.89 269.92C1108.89 269.922 1108.88 269.923 1108.88 269.924C1108.88 269.925 1108.88 269.925 1108.88 269.925C1108.88 269.925 1108.88 269.925 1108.88 269.925C1108.88 269.925 1108.88 269.926 1108.88 269.926C1108.88 269.926 1108.88 269.926 1108.98 269.984ZM1115.71 274.873L1109.1 269.906L1108.86 270.062L1115.48 275.029L1115.71 274.873ZM1119.76 271.728C1118.95 272.388 1117.88 273.178 1117.02 273.803C1116.59 274.115 1116.21 274.386 1115.94 274.579C1115.8 274.675 1115.7 274.752 1115.62 274.805C1115.58 274.831 1115.55 274.852 1115.53 274.866C1115.52 274.872 1115.52 274.878 1115.51 274.881C1115.51 274.883 1115.51 274.884 1115.51 274.885C1115.51 274.885 1115.51 274.886 1115.51 274.886C1115.5 274.886 1115.5 274.886 1115.5 274.886C1115.5 274.886 1115.5 274.886 1115.5 274.886C1115.5 274.886 1115.5 274.886 1115.6 274.951C1115.69 275.015 1115.69 275.015 1115.69 275.015C1115.69 275.015 1115.69 275.015 1115.69 275.015C1115.69 275.015 1115.69 275.015 1115.69 275.015C1115.69 275.014 1115.69 275.014 1115.69 275.014C1115.69 275.013 1115.69 275.011 1115.7 275.01C1115.7 275.006 1115.71 275.001 1115.72 274.994C1115.74 274.98 1115.77 274.96 1115.8 274.933C1115.88 274.88 1115.99 274.803 1116.13 274.706C1116.4 274.513 1116.78 274.241 1117.21 273.928C1118.07 273.302 1119.14 272.508 1119.96 271.841L1119.76 271.728Z" fill="#171717"/>
<path d="M1425.43 327.997C1428.74 332.297 1434.12 335.366 1441.19 336.468L1444.76 343.693C1436.35 342.321 1430.44 338.129 1427.63 332.443C1427.63 332.443 1427.63 332.443 1427.63 332.443L1425.43 327.997Z" fill="#5B40FF" stroke="black" stroke-width="0.35"/>
<path d="M1488.66 313.438C1492.23 307.102 1493.13 300.88 1491.7 295.564L1493.9 300.008L1493.9 300.008C1496.74 305.773 1496.43 313.109 1492.24 320.668L1488.66 313.438Z" fill="white" stroke="black" stroke-width="0.35"/>
<path d="M1472.07 338.945L1468.46 331.648C1476.82 327.546 1484.12 321.293 1488.46 313.805L1492.03 321.037C1487.75 328.544 1480.45 334.829 1472.07 338.945Z" fill="#6B91FF" stroke="black" stroke-width="0.35"/>
<path d="M1471.75 339.098C1463.29 343.183 1453.78 345.053 1445.18 343.76L1441.61 336.531C1450.22 337.766 1459.71 335.874 1468.14 331.801L1471.75 339.098Z" fill="#605CFF" stroke="black" stroke-width="0.35"/>
<path d="M1488.29 313.406C1479.67 328.617 1458.67 338.803 1441.39 336.157C1424.11 333.511 1417.09 319.035 1425.71 303.824C1434.33 288.613 1455.33 278.427 1472.61 281.073C1489.89 283.719 1496.91 298.195 1488.29 313.406Z" fill="white" stroke="black" stroke-width="0.35"/>
<path d="M1484.11 312.828C1476.65 325.999 1458.46 334.819 1443.5 332.528C1428.53 330.237 1422.45 317.702 1429.92 304.531C1437.38 291.359 1455.57 282.539 1470.53 284.83C1485.5 287.121 1491.58 299.656 1484.11 312.828Z" fill="url(#paint37_linear_1_738)" stroke="black" stroke-width="0.35"/>
<mask id="path-97-inside-4_1_738" fill="white">
<path fill-rule="evenodd" clip-rule="evenodd" d="M1486.5 296.02C1483.77 291.691 1478.8 288.568 1472.03 287.531C1456.97 285.225 1438.67 294.101 1431.15 307.357C1427.72 313.408 1427.13 319.326 1428.94 324.19C1425.6 318.895 1425.61 311.796 1429.74 304.503C1437.26 291.248 1455.56 282.371 1470.62 284.677C1478.8 285.93 1484.35 290.229 1486.5 296.02Z"/>
</mask>
<path fill-rule="evenodd" clip-rule="evenodd" d="M1486.5 296.02C1483.77 291.691 1478.8 288.568 1472.03 287.531C1456.97 285.225 1438.67 294.101 1431.15 307.357C1427.72 313.408 1427.13 319.326 1428.94 324.19C1425.6 318.895 1425.61 311.796 1429.74 304.503C1437.26 291.248 1455.56 282.371 1470.62 284.677C1478.8 285.93 1484.35 290.229 1486.5 296.02Z" fill="black"/>
<path d="M1472.03 287.531L1471.97 287.877L1471.97 287.877L1472.03 287.531ZM1486.5 296.02L1486.2 296.207L1486.82 295.898L1486.5 296.02ZM1431.15 307.357L1431.46 307.53L1431.46 307.53L1431.15 307.357ZM1428.94 324.19L1428.64 324.377L1429.27 324.069L1428.94 324.19ZM1429.74 304.503L1430.05 304.676L1429.74 304.503ZM1470.62 284.677L1470.67 284.331L1470.62 284.677ZM1471.97 287.877C1478.67 288.902 1483.54 291.981 1486.2 296.207L1486.79 295.833C1484 291.401 1478.93 288.234 1472.08 287.185L1471.97 287.877ZM1431.46 307.53C1435.17 300.975 1441.57 295.487 1448.91 291.923C1456.26 288.36 1464.53 286.736 1471.97 287.877L1472.08 287.185C1464.47 286.019 1456.05 287.681 1448.61 291.293C1441.16 294.906 1434.65 300.483 1430.85 307.184L1431.46 307.53ZM1429.27 324.069C1427.51 319.321 1428.07 313.511 1431.46 307.53L1430.85 307.184C1427.38 313.306 1426.76 319.331 1428.61 324.312L1429.27 324.069ZM1429.24 324.004C1425.98 318.841 1425.96 311.883 1430.05 304.676L1429.44 304.331C1425.26 311.71 1425.22 318.95 1428.64 324.377L1429.24 324.004ZM1430.05 304.676C1433.76 298.122 1440.16 292.633 1447.5 289.07C1454.85 285.506 1463.12 283.883 1470.56 285.023L1470.67 284.331C1463.06 283.165 1454.64 284.827 1447.2 288.44C1439.75 292.052 1433.24 297.63 1429.44 304.331L1430.05 304.676ZM1470.56 285.023C1478.65 286.261 1484.07 290.495 1486.17 296.142L1486.82 295.898C1484.62 289.962 1478.95 285.599 1470.67 284.331L1470.56 285.023Z" fill="black" mask="url(#path-97-inside-4_1_738)"/>
<path d="M1468.55 290.928L1450.54 313.437L1452.37 318.545L1470.38 296.036L1468.55 290.928Z" fill="#5A41FF" stroke="#171717" stroke-width="0.25" stroke-miterlimit="10"/>
<path d="M1469.12 291.075L1468.21 310.696L1470.05 315.804L1470.96 296.183L1469.12 291.075Z" fill="#5A41FF" stroke="#171717" stroke-width="0.25" stroke-miterlimit="10"/>
<path d="M1450.54 313.437L1443.07 304.467L1444.9 309.575L1452.37 318.545L1450.54 313.437Z" fill="#826FFF" stroke="#171717" stroke-width="0.25" stroke-miterlimit="10"/>
<path d="M1468.21 310.696L1451.12 313.584L1452.95 318.692L1470.05 315.803L1468.21 310.696Z" fill="#826FFF" stroke="#171717" stroke-width="0.25" stroke-miterlimit="10"/>
<path d="M1449.32 314.826L1442.83 322.938L1444.66 328.045L1451.15 319.934L1449.32 314.826Z" fill="#5A41FF" stroke="#171717" stroke-width="0.25" stroke-miterlimit="10"/>
<path d="M1466.74 312.108L1443.51 323.057L1445.35 328.164L1468.58 317.215L1466.74 312.108Z" fill="#5A41FF" stroke="#171717" stroke-width="0.25" stroke-miterlimit="10"/>
<path d="M1469.12 291.075L1451.12 313.584L1468.21 310.696L1469.12 291.075ZM1443.51 323.057L1466.74 312.108L1450 314.945L1443.51 323.057ZM1442.83 322.938L1449.32 314.826L1441.91 306.007L1442.83 322.938ZM1450.54 313.437L1468.55 290.928L1443.07 304.467L1450.54 313.437Z" fill="white" stroke="#171717" stroke-width="0.25" stroke-miterlimit="10"/>
<g opacity="0.2" filter="url(#filter0_f_1_738)">
<path d="M1439.5 159.942C1432.46 159.914 1427.54 157.44 1425.25 153.472L1421.8 147.492C1424.41 150.695 1429.03 152.615 1435.27 152.623L1439.5 159.942Z" fill="white" stroke="black" stroke-width="0.138296"/>
<path d="M1478.5 137.573L1474.27 130.253C1477.43 124.834 1478.1 119.854 1476.63 115.972L1480.08 121.949C1482.38 125.935 1482.04 131.454 1478.5 137.573Z" fill="#458F2C" stroke="black" stroke-width="0.138296"/>
<path d="M1461.74 153.379L1457.51 146.041C1464.49 142.026 1470.6 136.496 1474.2 130.382L1478.43 137.702C1474.84 143.817 1468.73 149.358 1461.74 153.379Z" fill="#6FCF4E" stroke="black" stroke-width="0.138296"/>
<path d="M1461.62 153.448C1454.63 157.45 1446.76 159.924 1439.67 159.934L1435.45 152.614C1442.54 152.586 1450.4 150.106 1457.39 146.11L1461.62 153.448Z" fill="#8AFF61" stroke="black" stroke-width="0.138296"/>
<path d="M1474.12 130.253C1466.94 142.536 1449.58 152.494 1435.35 152.494C1421.12 152.494 1415.41 142.536 1422.59 130.253C1429.77 117.969 1447.13 108.012 1461.36 108.012C1475.59 108.012 1481.31 117.969 1474.12 130.253Z" fill="white" stroke="black" stroke-width="0.138296"/>
<path d="M1470.75 130.232C1464.52 140.873 1449.49 149.499 1437.16 149.499C1424.83 149.499 1419.88 140.873 1426.11 130.232C1432.33 119.59 1447.37 110.964 1459.69 110.964C1472.02 110.964 1476.97 119.59 1470.75 130.232Z" fill="url(#paint38_linear_1_738)" stroke="black" stroke-width="0.138296"/>
<mask id="path-112-inside-5_1_738" fill="white">
<path fill-rule="evenodd" clip-rule="evenodd" d="M1472.8 117.707C1470.57 114.859 1466.53 113.142 1461.02 113.142C1448.66 113.142 1433.57 121.795 1427.33 132.469C1424.53 137.247 1423.99 141.62 1425.34 144.993C1422.56 141.448 1422.58 136.15 1426.04 130.231C1432.28 119.557 1447.36 110.904 1459.73 110.904C1466.56 110.904 1471.13 113.544 1472.8 117.707Z"/>
</mask>
<path fill-rule="evenodd" clip-rule="evenodd" d="M1472.8 117.707C1470.57 114.859 1466.53 113.142 1461.02 113.142C1448.66 113.142 1433.57 121.795 1427.33 132.469C1424.53 137.247 1423.99 141.62 1425.34 144.993C1422.56 141.448 1422.58 136.15 1426.04 130.231C1432.28 119.557 1447.36 110.904 1459.73 110.904C1466.56 110.904 1471.13 113.544 1472.8 117.707Z" fill="black"/>
<path d="M1461.02 113.142L1461.02 113.28H1461.02L1461.02 113.142ZM1472.8 117.707L1472.7 117.793L1472.93 117.656L1472.8 117.707ZM1427.33 132.469L1427.21 132.399L1427.21 132.399L1427.33 132.469ZM1425.34 144.993L1425.23 145.078L1425.47 144.941L1425.34 144.993ZM1426.04 130.231L1426.16 130.301L1426.16 130.301L1426.04 130.231ZM1459.73 110.904L1459.73 110.766L1459.73 110.766L1459.73 110.904ZM1461.02 113.28C1466.5 113.28 1470.5 114.989 1472.7 117.793L1472.91 117.622C1470.64 114.729 1466.56 113.003 1461.02 113.003L1461.02 113.28ZM1427.45 132.539C1430.55 127.227 1435.87 122.411 1441.95 118.922C1448.03 115.434 1454.87 113.28 1461.02 113.28L1461.02 113.003C1454.81 113.003 1447.92 115.176 1441.81 118.683C1435.7 122.189 1430.35 127.036 1427.21 132.399L1427.45 132.539ZM1425.47 144.941C1424.13 141.621 1424.67 137.294 1427.45 132.539L1427.21 132.399C1424.4 137.199 1423.84 141.618 1425.21 145.044L1425.47 144.941ZM1425.45 144.908C1422.72 141.424 1422.71 136.192 1426.16 130.301L1425.92 130.162C1422.44 136.108 1422.4 141.472 1425.23 145.078L1425.45 144.908ZM1426.16 130.301C1429.26 124.99 1434.57 120.174 1440.66 116.685C1446.74 113.196 1453.58 111.042 1459.73 111.042L1459.73 110.766C1453.52 110.766 1446.63 112.939 1440.52 116.445C1434.41 119.951 1429.05 124.799 1425.92 130.162L1426.16 130.301ZM1459.73 111.042C1466.53 111.042 1471.03 113.668 1472.68 117.759L1472.93 117.656C1471.23 113.421 1466.59 110.766 1459.73 110.766L1459.73 111.042Z" fill="black" mask="url(#path-112-inside-5_1_738)"/>
<path d="M1449.46 118.82L1444.22 124.063L1446.59 128.159L1451.83 122.915L1449.46 118.82Z" fill="#8AFF61" stroke="#171717" stroke-width="0.138296" stroke-miterlimit="10"/>
<path d="M1434.83 133.457L1429.6 132.056L1431.96 136.151L1437.19 137.553L1434.83 133.457Z" fill="#6FCF4E" stroke="#171717" stroke-width="0.138296" stroke-miterlimit="10"/>
<path d="M1440.15 128.138L1434.83 133.457L1437.19 137.553L1442.51 132.233L1440.15 128.138Z" fill="#8AFF61" stroke="#171717" stroke-width="0.138296" stroke-miterlimit="10"/>
<path d="M1454.96 120.354C1454.11 120.125 1451.15 122.163 1447.89 125.146L1450.25 129.242C1453.52 126.258 1456.47 124.22 1457.32 124.449L1454.96 120.354Z" fill="#6FCF4E" stroke="#171717" stroke-width="0.138296" stroke-miterlimit="10"/>
<path d="M1443.46 129.025L1440.15 128.138L1442.51 132.233L1445.82 133.12L1443.46 129.025Z" fill="#458F2C" stroke="#171717" stroke-width="0.138296" stroke-miterlimit="10"/>
<path d="M1458.76 118.199C1459.33 119.203 1457.25 122.548 1453.56 126.566L1455.93 130.661C1459.61 126.643 1461.7 123.298 1461.12 122.295L1458.76 118.199Z" fill="#8AFF61" stroke="#171717" stroke-width="0.138296" stroke-miterlimit="10"/>
<path d="M1447.53 130.064L1443.94 129.102L1446.3 133.197L1449.89 134.159L1447.53 130.064Z" fill="#458F2C" stroke="#171717" stroke-width="0.138296" stroke-miterlimit="10"/>
<path d="M1443.94 129.102C1441.4 131.877 1439.92 134.12 1440.27 134.718L1442.63 138.813C1442.29 138.215 1443.76 135.972 1446.3 133.197L1443.94 129.102Z" fill="#6FCF4E" stroke="#171717" stroke-width="0.138296" stroke-miterlimit="10"/>
<path fill-rule="evenodd" clip-rule="evenodd" d="M1438.6 137.703C1440.09 138.101 1444.71 135.056 1449.49 130.641L1451.85 134.736C1447.07 139.151 1442.45 142.196 1440.97 141.798L1438.6 137.703ZM1438.23 137.431C1438.31 137.564 1438.43 137.656 1438.6 137.703L1440.97 141.798C1440.79 141.752 1440.67 141.66 1440.59 141.526L1438.23 137.431Z" fill="#8AFF61"/>
<path d="M1449.49 130.641L1449.55 130.606L1449.51 130.532L1449.44 130.59L1449.49 130.641ZM1438.6 137.703L1438.62 137.636L1438.46 137.593L1438.54 137.737L1438.6 137.703ZM1451.85 134.736L1451.9 134.787L1451.94 134.75L1451.91 134.702L1451.85 134.736ZM1440.97 141.798L1440.91 141.832L1440.92 141.857L1440.95 141.865L1440.97 141.798ZM1438.6 137.703L1438.66 137.668L1438.65 137.644L1438.62 137.636L1438.6 137.703ZM1440.97 141.798L1440.95 141.865L1441.11 141.908L1441.03 141.764L1440.97 141.798ZM1449.44 130.59C1447.05 132.796 1444.71 134.658 1442.77 135.919C1441.81 136.549 1440.94 137.028 1440.23 137.324C1439.88 137.472 1439.56 137.574 1439.29 137.627C1439.02 137.679 1438.79 137.682 1438.62 137.636L1438.59 137.769C1438.79 137.823 1439.03 137.817 1439.32 137.762C1439.6 137.707 1439.92 137.602 1440.29 137.452C1441.01 137.151 1441.88 136.668 1442.85 136.035C1444.79 134.769 1447.14 132.901 1449.54 130.692L1449.44 130.59ZM1451.91 134.702L1449.55 130.606L1449.43 130.676L1451.79 134.771L1451.91 134.702ZM1440.95 141.865C1441.15 141.918 1441.4 141.912 1441.68 141.858C1441.96 141.803 1442.29 141.697 1442.65 141.547C1443.37 141.246 1444.24 140.763 1445.21 140.13C1447.15 138.864 1449.51 136.996 1451.9 134.787L1451.81 134.685C1449.42 136.891 1447.07 138.753 1445.14 140.014C1444.17 140.644 1443.31 141.123 1442.6 141.419C1442.24 141.567 1441.93 141.669 1441.65 141.722C1441.38 141.775 1441.16 141.777 1440.99 141.731L1440.95 141.865ZM1438.54 137.737L1440.91 141.832L1441.03 141.763L1438.66 137.668L1438.54 137.737ZM1438.62 137.636C1438.46 137.594 1438.36 137.512 1438.29 137.396L1438.17 137.465C1438.26 137.617 1438.4 137.719 1438.59 137.77L1438.62 137.636ZM1441.03 141.764L1438.66 137.668L1438.54 137.738L1440.91 141.833L1441.03 141.764ZM1440.53 141.561C1440.62 141.712 1440.76 141.814 1440.95 141.865L1440.99 141.731C1440.83 141.689 1440.72 141.607 1440.65 141.491L1440.53 141.561ZM1438.17 137.465L1440.53 141.561L1440.65 141.491L1438.29 137.396L1438.17 137.465Z" fill="#171717"/>
<path d="M1460.06 133.473L1449.49 130.641L1451.85 134.736L1462.42 137.568L1460.06 133.473Z" fill="#6FCF4E" stroke="#171717" stroke-width="0.138296" stroke-miterlimit="10"/>
<path d="M1464.13 129.398L1460.06 133.473L1462.42 137.568L1466.5 133.494L1464.13 129.398Z" fill="#8AFF61" stroke="#171717" stroke-width="0.138296" stroke-miterlimit="10"/>
<path d="M1458.38 117.927C1456.9 117.53 1452.3 120.557 1447.54 124.952L1444.22 124.063L1449.46 118.819L1444.23 117.418L1429.6 132.056L1434.83 133.457L1440.15 128.138L1443.46 129.025C1439.26 133.596 1437.12 137.305 1438.6 137.703C1440.09 138.101 1444.71 135.057 1449.49 130.641L1460.06 133.473L1464.13 129.398L1453.56 126.566C1457.74 122.013 1459.86 118.324 1458.38 117.927ZM1440.46 134.856C1439.6 134.626 1441.11 132.194 1443.94 129.102L1447.53 130.064C1444.28 133.043 1441.32 135.087 1440.46 134.856ZM1451.48 126.109L1447.89 125.146C1451.15 122.163 1454.11 120.125 1454.96 120.354C1455.81 120.583 1454.3 123.007 1451.48 126.109Z" fill="white" stroke="#171717" stroke-width="0.138296" stroke-miterlimit="10"/>
</g>
<g opacity="0.2" filter="url(#filter1_f_1_738)">
<path d="M1045.11 106.033C1044.31 108.453 1044.76 111.504 1046.66 114.816L1044.01 119.411C1041.81 115.553 1041.62 112.088 1043.06 109.587C1043.06 109.587 1043.06 109.587 1043.06 109.587L1045.11 106.033Z" fill="white" stroke="black" stroke-width="0.138296"/>
<path d="M1071.37 129.177C1075.21 129.191 1078.1 128.06 1079.8 126.142L1077.74 129.695L1077.74 129.695C1076.29 132.207 1073.18 133.77 1068.72 133.772L1071.37 129.177Z" fill="#458F2C" stroke="black" stroke-width="0.138296"/>
<path d="M1054.71 129.596L1057.37 124.982C1061.78 127.531 1066.73 129.129 1071.22 129.181L1068.57 133.777C1064.09 133.743 1059.12 132.151 1054.71 129.596Z" fill="#6FCF4E" stroke="black" stroke-width="0.138296"/>
<path d="M1054.59 129.526C1050.18 126.955 1046.34 123.431 1044.1 119.555L1046.75 114.959C1049.02 118.834 1052.86 122.348 1057.25 124.913L1054.59 129.526Z" fill="#8AFF61" stroke="black" stroke-width="0.138296"/>
<circle cx="16.3966" cy="16.3966" r="16.3275" transform="matrix(0.5 0.866025 -0.999984 -0.00558508 1071.33 100.8)" fill="white" stroke="black" stroke-width="0.138296"/>
<path d="M1070.24 127.186C1062.43 127.143 1052.93 121.624 1049.03 114.861C1045.12 108.097 1048.29 102.649 1056.1 102.693C1063.91 102.737 1073.41 108.255 1077.31 115.019C1081.22 121.782 1078.05 127.23 1070.24 127.186Z" fill="url(#paint39_linear_1_738)" stroke="black" stroke-width="0.138296"/>
<mask id="path-133-inside-6_1_738" fill="white">
<path fill-rule="evenodd" clip-rule="evenodd" d="M1077.79 124.364C1078.65 122.232 1078.31 119.467 1076.56 116.439C1072.64 109.642 1063.09 104.097 1055.24 104.053C1051.73 104.034 1049.15 105.12 1047.73 106.935C1048.8 104.281 1051.71 102.609 1056.06 102.633C1063.91 102.677 1073.46 108.222 1077.38 115.019C1079.55 118.773 1079.55 122.124 1077.79 124.364Z"/>
</mask>
<path fill-rule="evenodd" clip-rule="evenodd" d="M1077.79 124.364C1078.65 122.232 1078.31 119.467 1076.56 116.439C1072.64 109.642 1063.09 104.097 1055.24 104.053C1051.73 104.034 1049.15 105.12 1047.73 106.935C1048.8 104.281 1051.71 102.609 1056.06 102.633C1063.91 102.677 1073.46 108.222 1077.38 115.019C1079.55 118.773 1079.55 122.124 1077.79 124.364Z" fill="black"/>
<path d="M1076.56 116.439L1076.68 116.37L1076.68 116.37L1076.56 116.439ZM1077.79 124.364L1077.66 124.312L1077.9 124.449L1077.79 124.364ZM1055.24 104.053L1055.25 103.915L1055.24 104.053ZM1047.73 106.935L1047.6 106.884L1047.84 107.021L1047.73 106.935ZM1056.06 102.633L1056.07 102.495L1056.07 102.495L1056.06 102.633ZM1077.38 115.019L1077.5 114.95L1077.5 114.95L1077.38 115.019ZM1076.44 116.508C1078.18 119.513 1078.5 122.233 1077.66 124.312L1077.92 124.415C1078.8 122.231 1078.44 119.42 1076.68 116.37L1076.44 116.508ZM1055.24 104.192C1059.14 104.213 1063.46 105.601 1067.3 107.833C1071.15 110.066 1074.49 113.136 1076.44 116.508L1076.68 116.37C1074.7 112.946 1071.32 109.845 1067.44 107.594C1063.57 105.344 1059.2 103.937 1055.25 103.915L1055.24 104.192ZM1047.84 107.021C1049.23 105.25 1051.76 104.172 1055.24 104.192L1055.25 103.915C1051.71 103.895 1049.08 104.99 1047.62 106.85L1047.84 107.021ZM1047.86 106.987C1048.89 104.405 1051.74 102.747 1056.06 102.771L1056.07 102.495C1051.68 102.47 1048.7 104.157 1047.6 106.884L1047.86 106.987ZM1056.06 102.771C1059.96 102.793 1064.28 104.181 1068.12 106.413C1071.97 108.646 1075.31 111.715 1077.26 115.088L1077.5 114.95C1075.52 111.525 1072.14 108.424 1068.26 106.174C1064.39 103.924 1060.02 102.517 1056.07 102.495L1056.06 102.771ZM1077.26 115.088C1079.41 118.815 1079.39 122.099 1077.68 124.279L1077.9 124.449C1079.7 122.148 1079.68 118.731 1077.5 114.95L1077.26 115.088Z" fill="black" mask="url(#path-133-inside-6_1_738)"/>
<path d="M1069.77 111.889L1065.23 110.671L1063.73 113.27L1068.27 114.488L1069.77 111.889Z" fill="#8AFF61" stroke="#171717" stroke-width="0.138296" stroke-miterlimit="10"/>
<path d="M1057.08 108.488L1056.19 105.168L1054.69 107.767L1055.58 111.087L1057.08 108.488Z" fill="#6FCF4E" stroke="#171717" stroke-width="0.138296" stroke-miterlimit="10"/>
<path d="M1061.69 109.724L1057.08 108.488L1055.58 111.087L1060.19 112.323L1061.69 109.724Z" fill="#8AFF61" stroke="#171717" stroke-width="0.138296" stroke-miterlimit="10"/>
<path d="M1070.67 115.396C1070.53 114.854 1068.47 113.878 1065.79 113.031L1064.29 115.63C1066.97 116.477 1069.03 117.453 1069.17 117.995L1070.67 115.396Z" fill="#6FCF4E" stroke="#171717" stroke-width="0.138296" stroke-miterlimit="10"/>
<path d="M1062.26 111.826L1061.69 109.724L1060.19 112.323L1060.76 114.425L1062.26 111.826Z" fill="#458F2C" stroke="#171717" stroke-width="0.138296" stroke-miterlimit="10"/>
<path d="M1073.06 116.798C1072.69 117.435 1070.19 117.351 1066.81 116.599L1065.31 119.198C1068.69 119.95 1071.19 120.034 1071.56 119.397L1073.06 116.798Z" fill="#8AFF61" stroke="#171717" stroke-width="0.138296" stroke-miterlimit="10"/>
<path d="M1062.98 114.392L1062.37 112.112L1060.87 114.712L1061.48 116.991L1062.98 114.392Z" fill="#458F2C" stroke="#171717" stroke-width="0.138296" stroke-miterlimit="10"/>
<path d="M1062.37 112.112C1060.04 111.6 1058.33 111.498 1058.11 111.878L1056.61 114.477C1056.83 114.098 1058.54 114.199 1060.87 114.712L1062.37 112.112Z" fill="#6FCF4E" stroke="#171717" stroke-width="0.138296" stroke-miterlimit="10"/>
<path fill-rule="evenodd" clip-rule="evenodd" d="M1055.95 111.912C1056.2 112.854 1059.34 114.426 1063.28 115.654L1061.78 118.253C1057.84 117.025 1054.7 115.454 1054.45 114.511L1055.95 111.912ZM1055.98 111.619C1055.93 111.704 1055.92 111.801 1055.95 111.912L1054.45 114.511C1054.42 114.401 1054.43 114.303 1054.48 114.218L1055.98 111.619Z" fill="#8AFF61"/>
<path d="M1063.28 115.654L1063.34 115.688L1063.39 115.613L1063.3 115.588L1063.28 115.654ZM1055.95 111.912L1056.01 111.894L1055.97 111.732L1055.89 111.877L1055.95 111.912ZM1061.78 118.253L1061.76 118.319L1061.81 118.335L1061.84 118.288L1061.78 118.253ZM1054.45 114.511L1054.39 114.476L1054.37 114.501L1054.38 114.529L1054.45 114.511ZM1055.95 111.912L1056.01 111.946L1056.02 111.922L1056.01 111.894L1055.95 111.912ZM1054.45 114.511L1054.38 114.529L1054.42 114.69L1054.51 114.546L1054.45 114.511ZM1063.3 115.588C1061.33 114.975 1059.57 114.276 1058.26 113.614C1057.61 113.283 1057.07 112.962 1056.69 112.666C1056.49 112.519 1056.34 112.378 1056.22 112.247C1056.11 112.116 1056.04 111.997 1056.01 111.894L1055.88 111.929C1055.92 112.061 1056 112.198 1056.12 112.338C1056.24 112.478 1056.4 112.625 1056.6 112.776C1057 113.079 1057.54 113.404 1058.2 113.737C1059.51 114.404 1061.29 115.105 1063.26 115.72L1063.3 115.588ZM1061.84 118.288L1063.34 115.688L1063.22 115.619L1061.72 118.218L1061.84 118.288ZM1054.38 114.529C1054.41 114.661 1054.5 114.798 1054.62 114.937C1054.74 115.077 1054.9 115.224 1055.1 115.375C1055.5 115.678 1056.04 116.003 1056.7 116.337C1058.01 117.003 1059.79 117.704 1061.76 118.319L1061.8 118.187C1059.83 117.574 1058.07 116.875 1056.76 116.213C1056.11 115.882 1055.57 115.561 1055.19 115.266C1054.99 115.118 1054.84 114.977 1054.72 114.847C1054.61 114.715 1054.54 114.597 1054.51 114.493L1054.38 114.529ZM1055.89 111.877L1054.39 114.476L1054.51 114.545L1056.01 111.946L1055.89 111.877ZM1056.01 111.894C1055.99 111.799 1056 111.721 1056.04 111.654L1055.92 111.585C1055.86 111.687 1055.85 111.804 1055.88 111.93L1056.01 111.894ZM1054.51 114.546L1056.01 111.946L1055.89 111.877L1054.39 114.476L1054.51 114.546ZM1054.42 114.184C1054.36 114.286 1054.35 114.403 1054.38 114.529L1054.51 114.493C1054.49 114.398 1054.5 114.32 1054.54 114.253L1054.42 114.184ZM1055.92 111.585L1054.42 114.184L1054.54 114.253L1056.04 111.654L1055.92 111.585Z" fill="#171717"/>
<path d="M1065.08 122.361L1063.28 115.654L1061.78 118.253L1063.58 124.96L1065.08 122.361Z" fill="#6FCF4E" stroke="#171717" stroke-width="0.138296" stroke-miterlimit="10"/>
<path d="M1068.61 123.307L1065.08 122.361L1063.58 124.96L1067.11 125.907L1068.61 123.307Z" fill="#8AFF61" stroke="#171717" stroke-width="0.138296" stroke-miterlimit="10"/>
<path d="M1073.09 116.506C1072.84 115.566 1069.72 114.001 1065.79 112.774L1065.23 110.671L1069.77 111.889L1068.88 108.569L1056.19 105.168L1057.08 108.488L1061.69 109.724L1062.26 111.826C1058.41 110.967 1055.69 110.969 1055.95 111.912C1056.2 112.855 1059.34 114.426 1063.28 115.654L1065.08 122.361L1068.61 123.308L1066.81 116.599C1070.64 117.451 1073.34 117.446 1073.09 116.506ZM1058.1 112.027C1057.95 111.481 1059.77 111.541 1062.37 112.112L1062.98 114.392C1060.31 113.553 1058.25 112.574 1058.1 112.027ZM1066.41 115.311L1065.79 113.031C1068.47 113.878 1070.53 114.854 1070.67 115.396C1070.82 115.939 1069.01 115.877 1066.41 115.311Z" fill="white" stroke="#171717" stroke-width="0.138296" stroke-miterlimit="10"/>
</g>
<defs>
<filter id="filter0_f_1_738" x="1417.41" y="105.952" width="66.1981" height="56.0594" filterUnits="userSpaceOnUse" color-interpolation-filters="sRGB">
<feFlood flood-opacity="0" result="BackgroundImageFix"/>
<feBlend mode="normal" in="SourceGraphic" in2="BackgroundImageFix" result="shape"/>
<feGaussianBlur stdDeviation="1" result="effect1_foregroundBlur_1_738"/>
</filter>
<filter id="filter1_f_1_738" x="1040.07" y="98.7077" width="43.4045" height="37.1385" filterUnits="userSpaceOnUse" color-interpolation-filters="sRGB">
<feFlood flood-opacity="0" result="BackgroundImageFix"/>
<feBlend mode="normal" in="SourceGraphic" in2="BackgroundImageFix" result="shape"/>
<feGaussianBlur stdDeviation="1" result="effect1_foregroundBlur_1_738"/>
</filter>
<linearGradient id="paint0_linear_1_738" x1="242.2" y1="335" x2="242.2" y2="499.985" gradientUnits="userSpaceOnUse">
<stop stop-color="#535353" stop-opacity="0"/>
<stop offset="1" stop-color="#03C59E"/>
</linearGradient>
<linearGradient id="paint1_linear_1_738" x1="421.776" y1="335" x2="421.776" y2="499.985" gradientUnits="userSpaceOnUse">
<stop stop-color="#535353" stop-opacity="0"/>
<stop offset="1" stop-color="#03C59E"/>
</linearGradient>
<linearGradient id="paint2_linear_1_738" x1="601.352" y1="335" x2="601.352" y2="499.985" gradientUnits="userSpaceOnUse">
<stop stop-color="#535353" stop-opacity="0"/>
<stop offset="1" stop-color="#03C59E"/>
</linearGradient>
<linearGradient id="paint3_linear_1_738" x1="780.927" y1="335" x2="780.927" y2="499.985" gradientUnits="userSpaceOnUse">
<stop stop-color="#535353" stop-opacity="0"/>
<stop offset="1" stop-color="#03C59E"/>
</linearGradient>
<linearGradient id="paint4_linear_1_738" x1="960.989" y1="335" x2="960.989" y2="499.985" gradientUnits="userSpaceOnUse">
<stop stop-color="#535353" stop-opacity="0"/>
<stop offset="1" stop-color="#03C59E"/>
</linearGradient>
<linearGradient id="paint5_linear_1_738" x1="1140.06" y1="335" x2="1140.06" y2="499.985" gradientUnits="userSpaceOnUse">
<stop stop-color="#535353" stop-opacity="0"/>
<stop offset="1" stop-color="#03C59E"/>
</linearGradient>
<linearGradient id="paint6_linear_1_738" x1="1319.64" y1="335" x2="1319.64" y2="499.985" gradientUnits="userSpaceOnUse">
<stop stop-color="#535353" stop-opacity="0"/>
<stop offset="1" stop-color="#03C59E"/>
</linearGradient>
<linearGradient id="paint7_linear_1_738" x1="1499.22" y1="335" x2="1499.22" y2="499.985" gradientUnits="userSpaceOnUse">
<stop stop-color="#535353" stop-opacity="0"/>
<stop offset="1" stop-color="#03C59E"/>
</linearGradient>
<linearGradient id="paint8_linear_1_738" x1="1678.79" y1="335" x2="1678.79" y2="499.985" gradientUnits="userSpaceOnUse">
<stop stop-color="#535353" stop-opacity="0"/>
<stop offset="1" stop-color="#03C59E"/>
</linearGradient>
<linearGradient id="paint9_linear_1_738" x1="939.278" y1="520.282" x2="534.431" y2="492.18" gradientUnits="userSpaceOnUse">
<stop stop-color="#262B34"/>
<stop offset="1" stop-color="#2B2F38" stop-opacity="0"/>
</linearGradient>
<linearGradient id="paint10_linear_1_738" x1="678.246" y1="531.44" x2="215.563" y2="499.324" gradientUnits="userSpaceOnUse">
<stop stop-color="#262B34"/>
<stop offset="1" stop-color="#2B2F38" stop-opacity="0"/>
</linearGradient>
<linearGradient id="paint11_linear_1_738" x1="738.72" y1="269.23" x2="427.279" y2="255.424" gradientUnits="userSpaceOnUse">
<stop stop-color="#262B34"/>
<stop offset="1" stop-color="#2B2F38" stop-opacity="0"/>
</linearGradient>
<linearGradient id="paint12_linear_1_738" x1="465.502" y1="299.98" x2="108.473" y2="281.531" gradientUnits="userSpaceOnUse">
<stop stop-color="#262B34"/>
<stop offset="1" stop-color="#2B2F38" stop-opacity="0"/>
</linearGradient>
<linearGradient id="paint13_linear_1_738" x1="668.143" y1="356.699" x2="321.792" y2="338.67" gradientUnits="userSpaceOnUse">
<stop stop-color="#262B34"/>
<stop offset="1" stop-color="#2B2F38" stop-opacity="0"/>
</linearGradient>
<linearGradient id="paint14_linear_1_738" x1="302.658" y1="475.651" x2="0.796187" y2="460.148" gradientUnits="userSpaceOnUse">
<stop stop-color="#262B34"/>
<stop offset="1" stop-color="#2B2F38" stop-opacity="0"/>
</linearGradient>
<linearGradient id="paint15_linear_1_738" x1="406.798" y1="54.4405" x2="1.95065" y2="26.3387" gradientUnits="userSpaceOnUse">
<stop stop-color="#262B34"/>
<stop offset="1" stop-color="#2B2F38" stop-opacity="0"/>
</linearGradient>
<linearGradient id="paint16_linear_1_738" x1="464.912" y1="54.4403" x2="2.2293" y2="22.324" gradientUnits="userSpaceOnUse">
<stop stop-color="#262B34"/>
<stop offset="1" stop-color="#2B2F38" stop-opacity="0"/>
</linearGradient>
<linearGradient id="paint17_linear_1_738" x1="312.053" y1="54.4404" x2="0.611973" y2="40.6348" gradientUnits="userSpaceOnUse">
<stop stop-color="#262B34"/>
<stop offset="1" stop-color="#2B2F38" stop-opacity="0"/>
</linearGradient>
<linearGradient id="paint18_linear_1_738" x1="357.982" y1="53.5763" x2="0.953296" y2="35.1275" gradientUnits="userSpaceOnUse">
<stop stop-color="#262B34"/>
<stop offset="1" stop-color="#2B2F38" stop-opacity="0"/>
</linearGradient>
<linearGradient id="paint19_linear_1_738" x1="347.289" y1="53.5763" x2="0.938489" y2="35.5473" gradientUnits="userSpaceOnUse">
<stop stop-color="#262B34"/>
<stop offset="1" stop-color="#2B2F38" stop-opacity="0"/>
</linearGradient>
<linearGradient id="paint20_linear_1_738" x1="302.658" y1="54.4405" x2="0.796187" y2="38.9377" gradientUnits="userSpaceOnUse">
<stop stop-color="#262B34"/>
<stop offset="1" stop-color="#2B2F38" stop-opacity="0"/>
</linearGradient>
<linearGradient id="paint21_linear_1_738" x1="406.798" y1="54.4405" x2="1.95065" y2="26.3387" gradientUnits="userSpaceOnUse">
<stop stop-color="#262B34"/>
<stop offset="1" stop-color="#2B2F38" stop-opacity="0"/>
</linearGradient>
<linearGradient id="paint22_linear_1_738" x1="464.912" y1="54.4403" x2="2.2293" y2="22.324" gradientUnits="userSpaceOnUse">
<stop stop-color="#262B34"/>
<stop offset="1" stop-color="#2B2F38" stop-opacity="0"/>
</linearGradient>
<linearGradient id="paint23_linear_1_738" x1="312.053" y1="54.4404" x2="0.611973" y2="40.6348" gradientUnits="userSpaceOnUse">
<stop stop-color="#262B34"/>
<stop offset="1" stop-color="#2B2F38" stop-opacity="0"/>
</linearGradient>
<linearGradient id="paint24_linear_1_738" x1="357.982" y1="53.5763" x2="0.953296" y2="35.1275" gradientUnits="userSpaceOnUse">
<stop stop-color="#262B34"/>
<stop offset="1" stop-color="#2B2F38" stop-opacity="0"/>
</linearGradient>
<linearGradient id="paint25_linear_1_738" x1="347.289" y1="53.5763" x2="0.938489" y2="35.5473" gradientUnits="userSpaceOnUse">
<stop stop-color="#262B34"/>
<stop offset="1" stop-color="#2B2F38" stop-opacity="0"/>
</linearGradient>
<linearGradient id="paint26_linear_1_738" x1="302.658" y1="54.4405" x2="0.796187" y2="38.9377" gradientUnits="userSpaceOnUse">
<stop stop-color="#262B34"/>
<stop offset="1" stop-color="#2B2F38" stop-opacity="0"/>
</linearGradient>
<linearGradient id="paint27_linear_1_738" x1="1299.65" y1="387.814" x2="1299.65" y2="434.195" gradientUnits="userSpaceOnUse">
<stop stop-color="white"/>
<stop offset="1" stop-color="white" stop-opacity="0"/>
</linearGradient>
<linearGradient id="paint28_linear_1_738" x1="1301.6" y1="450.018" x2="1301.6" y2="307.389" gradientUnits="userSpaceOnUse">
<stop stop-color="#00D770"/>
<stop offset="1" stop-color="#00D770" stop-opacity="0"/>
</linearGradient>
<linearGradient id="paint29_linear_1_738" x1="1272.5" y1="423" x2="1272.5" y2="295.476" gradientUnits="userSpaceOnUse">
<stop stop-color="#00D770"/>
<stop offset="1" stop-color="#00D770" stop-opacity="0"/>
</linearGradient>
<linearGradient id="paint30_linear_1_738" x1="1392.88" y1="423" x2="1392.88" y2="281" gradientUnits="userSpaceOnUse">
<stop stop-color="white"/>
<stop offset="1" stop-color="white" stop-opacity="0"/>
</linearGradient>
<linearGradient id="paint31_linear_1_738" x1="1299.95" y1="735.611" x2="1299.96" y2="282.892" gradientUnits="userSpaceOnUse">
<stop stop-color="#03C59E"/>
<stop offset="1" stop-color="#94FF61" stop-opacity="0"/>
</linearGradient>
<linearGradient id="paint32_linear_1_738" x1="1125.08" y1="400.884" x2="1158.46" y2="320.398" gradientUnits="userSpaceOnUse">
<stop/>
<stop offset="1" stop-color="#8A8A8A" stop-opacity="0"/>
</linearGradient>
<linearGradient id="paint33_linear_1_738" x1="1359.85" y1="423" x2="1359.85" y2="283" gradientUnits="userSpaceOnUse">
<stop stop-color="white"/>
<stop offset="1" stop-color="white" stop-opacity="0"/>
</linearGradient>
<linearGradient id="paint34_linear_1_738" x1="1289.34" y1="131.503" x2="1296.03" y2="295.347" gradientUnits="userSpaceOnUse">
<stop stop-color="#F8FFE6"/>
<stop offset="1" stop-color="#FFF2C5"/>
</linearGradient>
<linearGradient id="paint35_linear_1_738" x1="1347.93" y1="279.65" x2="1293" y2="138.299" gradientUnits="userSpaceOnUse">
<stop stop-color="#8AFF61"/>
<stop offset="1" stop-color="#E9FF61"/>
</linearGradient>
<linearGradient id="paint36_linear_1_738" x1="1167.38" y1="267.904" x2="1086.94" y2="296.667" gradientUnits="userSpaceOnUse">
<stop stop-color="#FFC32A"/>
<stop offset="1" stop-color="#FFF0A4"/>
</linearGradient>
<linearGradient id="paint37_linear_1_738" x1="1476.45" y1="328.087" x2="1433.56" y2="303.967" gradientUnits="userSpaceOnUse">
<stop stop-color="#669AFF"/>
<stop offset="1" stop-color="#8963FF"/>
</linearGradient>
<linearGradient id="paint38_linear_1_738" x1="1459.73" y1="110.904" x2="1459.73" y2="149.559" gradientUnits="userSpaceOnUse">
<stop stop-color="#8AFF61"/>
<stop offset="1" stop-color="#E9FF61"/>
</linearGradient>
<linearGradient id="paint39_linear_1_738" x1="1077.38" y1="115.019" x2="1056.13" y2="127.286" gradientUnits="userSpaceOnUse">
<stop stop-color="#8AFF61"/>
<stop offset="1" stop-color="#E9FF61"/>
</linearGradient>
</defs>
</svg>
