<svg width="919" height="86" viewBox="0 0 919 86" fill="none" xmlns="http://www.w3.org/2000/svg">
<line x1="58" y1="42.5" x2="854" y2="42.5" stroke="#E9E9E9" stroke-dasharray="2 2"/>
<path fill-rule="evenodd" clip-rule="evenodd" d="M252.088 43.6C252.488 43.3 252.488 42.7 252.088 42.4L247.422 38.9C246.927 38.5292 246.222 38.882 246.222 39.5V46.5C246.222 47.118 246.927 47.4708 247.422 47.1L252.088 43.6Z" fill="#E9E9E9"/>
<path fill-rule="evenodd" clip-rule="evenodd" d="M259.268 43.8851C259.682 43.5857 259.682 42.9684 259.268 42.6691L256.299 40.5248C255.803 40.1666 255.11 40.521 255.11 41.1328V45.4214C255.11 46.0332 255.803 46.3876 256.299 46.0294L259.268 43.8851Z" fill="#878787"/>
<path fill-rule="evenodd" clip-rule="evenodd" d="M243.158 43.8859C243.573 43.5866 243.573 42.9693 243.158 42.6699L240.189 40.5256C239.693 40.1674 239 40.5218 239 41.1336V45.4222C239 46.034 239.693 46.3884 240.189 46.0302L243.158 43.8859Z" fill="#878787"/>
<path fill-rule="evenodd" clip-rule="evenodd" d="M669.088 43.6C669.488 43.3 669.488 42.7 669.088 42.4L664.422 38.9C663.927 38.5292 663.222 38.882 663.222 39.5V46.5C663.222 47.118 663.927 47.4708 664.422 47.1L669.088 43.6Z" fill="#E9E9E9"/>
<path fill-rule="evenodd" clip-rule="evenodd" d="M676.268 43.8851C676.682 43.5857 676.682 42.9684 676.268 42.6691L673.299 40.5248C672.803 40.1666 672.11 40.521 672.11 41.1328V45.4214C672.11 46.0332 672.803 46.3876 673.299 46.0294L676.268 43.8851Z" fill="#878787"/>
<path fill-rule="evenodd" clip-rule="evenodd" d="M660.158 43.8859C660.573 43.5866 660.573 42.9693 660.158 42.6699L657.189 40.5256C656.693 40.1674 656 40.5218 656 41.1336V45.4222C656 46.034 656.693 46.3884 657.189 46.0302L660.158 43.8859Z" fill="#878787"/>
<circle cx="877" cy="42.9998" r="41.776" fill="white" stroke="black" stroke-width="0.447602" stroke-linejoin="round"/>
<mask id="mask0_8_773" style="mask-type:alpha" maskUnits="userSpaceOnUse" x="835" y="1" width="84" height="84">
<circle cx="877" cy="43.0001" r="41.776" fill="white" stroke="black" stroke-width="0.447602" stroke-linejoin="round"/>
</mask>
<g mask="url(#mask0_8_773)">
<circle cx="876.545" cy="65.5453" r="30.1703" fill="#00D770" stroke="black" stroke-width="0.75" stroke-linejoin="round"/>
<path d="M893.939 64.6027C893.939 62.6036 888.177 60.9338 880.499 60.5358V56.0613H889.498V49.0001H864.376V56.0613H873.506V60.5324C865.795 60.9241 860 62.5978 860 64.6027C860 66.6081 865.795 68.2818 873.506 68.6737V82.9393H880.499V68.6705C888.177 68.2723 893.939 66.6025 893.939 64.6027ZM864.525 63.5452C864.525 62.3832 868.366 61.4057 873.576 61.1213V65.9697C868.366 65.6853 864.525 64.7076 864.525 63.5452ZM880.364 65.9697V61.1213C885.585 61.4195 889.414 62.3917 889.414 63.5454C889.414 64.6993 885.585 65.6717 880.364 65.9697Z" fill="white"/>
<circle cx="876.999" cy="-6.63563" r="30.1703" fill="#D5D5D5" stroke="black" stroke-width="0.75" stroke-linejoin="round"/>
<path d="M893.969 -1.2164C893.969 -3.21546 888.207 -4.88524 880.529 -5.28325V-9.7578H889.528V-16.819H864.406V-9.7578H873.536V-5.28666C865.825 -4.89499 860.03 -3.22131 860.03 -1.2164C860.03 0.78899 865.825 2.46267 873.536 2.85458V17.1202H880.529V2.85141C888.207 2.45316 893.969 0.783384 893.969 -1.2164ZM864.555 -2.27394C864.555 -3.43593 868.396 -4.41338 873.606 -4.69783V0.150627C868.396 -0.133825 864.555 -1.1115 864.555 -2.27394ZM880.394 0.150627V-4.69783C885.615 -4.39957 889.444 -3.42735 889.444 -2.27371C889.444 -1.11984 885.615 -0.147405 880.394 0.150627Z" fill="white"/>
</g>
<circle cx="877" cy="42.9998" r="41.4998" stroke="black" stroke-linejoin="round"/>
<circle cx="459" cy="43" r="41.5" fill="white" stroke="black" stroke-linejoin="round"/>
<mask id="mask1_8_773" style="mask-type:alpha" maskUnits="userSpaceOnUse" x="417" y="1" width="84" height="84">
<circle cx="459" cy="43" r="41.5" fill="white" stroke="black" stroke-linejoin="round"/>
</mask>
<g mask="url(#mask1_8_773)">
<rect x="434.375" y="15.375" width="49.25" height="70.25" rx="4.10102" fill="white" stroke="black" stroke-width="0.75" stroke-linejoin="round"/>
<path d="M475.291 41.1039C475.291 50.1019 467.998 57.3955 459 57.3955C450.002 57.3955 442.708 50.1019 442.708 41.1039C442.708 32.1058 450.002 24.8122 459 24.8122C467.998 24.8122 475.291 32.1058 475.291 41.1039Z" fill="#00D770" stroke="black" stroke-width="0.75" stroke-linejoin="round"/>
<path d="M467.78 36.0924C468.086 36.4396 468.259 36.9103 468.259 37.4011C468.259 37.8918 468.086 38.3625 467.78 38.7098L457.953 49.8215C457.646 50.1683 457.23 50.3631 456.796 50.3631C456.362 50.3631 455.946 50.1683 455.639 49.8215L450.18 43.6483C449.89 43.2972 449.733 42.8329 449.74 42.3531C449.748 41.8733 449.92 41.4156 450.22 41.0763C450.52 40.737 450.925 40.5426 451.349 40.5341C451.773 40.5257 452.184 40.7038 452.494 41.0309L456.796 45.8929L465.465 36.0899C465.772 35.7431 466.188 35.5483 466.622 35.5483C467.056 35.5483 467.473 35.7431 467.78 36.0899V36.0924Z" fill="white"/>
<rect x="448.388" y="65.707" width="21.2703" height="4.49292" rx="2.24646" fill="#D5D5D5" stroke="black" stroke-width="0.75" stroke-linejoin="round"/>
</g>
<circle cx="459" cy="43" r="41.5" stroke="black" stroke-linejoin="round"/>
<path d="M43 85C66.196 85 85 66.196 85 43C85 19.804 66.196 1 43 1C19.804 1 1 19.804 1 43C1 66.196 19.804 85 43 85Z" fill="white" stroke="black" stroke-linejoin="round"/>
<path d="M36.7542 49.2462C35.6287 48.1558 34.7337 46.8503 34.1226 45.4073C33.5114 43.9644 33.1965 42.4133 33.1965 40.8462C33.1965 39.2791 33.5114 37.728 34.1226 36.285C34.7337 34.842 35.6287 33.5366 36.7542 32.4462L46.8773 22.5385C47.9631 21.3605 49.2757 20.4142 50.7364 19.7563C52.1971 19.0983 53.7757 18.7424 55.3774 18.7098C56.9791 18.6772 58.5708 18.9687 60.057 19.5666C61.5433 20.1646 62.8933 21.0568 64.0261 22.1896C65.1589 23.3224 66.0511 24.6725 66.6491 26.1587C67.2471 27.6449 67.5385 29.2367 67.506 30.8384C67.4734 32.4401 67.1174 34.0187 66.4595 35.4793C65.8016 36.94 64.8552 38.2527 63.6773 39.3385L59.1542 43.8616C58.8834 44.1651 58.5516 44.408 58.1804 44.5743C57.8092 44.7406 57.4071 44.8266 57.0003 44.8266C56.5936 44.8266 56.1915 44.7406 55.8203 44.5743C55.4491 44.408 55.1172 44.1651 54.8465 43.8616C54.543 43.5908 54.3001 43.259 54.1338 42.8878C53.9675 42.5166 53.8815 42.1144 53.8815 41.7077C53.8815 41.301 53.9675 40.8988 54.1338 40.5276C54.3001 40.1565 54.543 39.8246 54.8465 39.5539L59.3696 35.0308C59.9494 34.5033 60.4161 33.8636 60.7415 33.1505C61.0669 32.4373 61.2443 31.6656 61.2627 30.8819C61.2812 30.0983 61.1405 29.319 60.8491 28.5913C60.5577 27.8636 60.1217 27.2026 59.5674 26.6484C59.0131 26.0941 58.3521 25.658 57.6244 25.3666C56.8967 25.0752 56.1175 24.9345 55.3338 24.953C54.5502 24.9715 53.7784 25.1488 53.0653 25.4742C52.3522 25.7996 51.7125 26.2664 51.185 26.8462L41.2773 36.7539C40.2385 37.8633 39.6606 39.3263 39.6606 40.8462C39.6606 42.366 40.2385 43.829 41.2773 44.9385C41.4927 45.1539 41.4927 45.1539 41.708 45.1539C42.0286 45.4307 42.2896 45.7698 42.475 46.1507C42.6604 46.5315 42.7664 46.9461 42.7866 47.3692C42.8067 47.7923 42.7406 48.215 42.5922 48.6118C42.4438 49.0085 42.2163 49.3709 41.9234 49.6769C41.6486 49.9684 41.3135 50.1965 40.9415 50.3453C40.5696 50.4941 40.1696 50.56 39.7696 50.5385C39.0014 50.5558 38.2475 50.3296 37.6157 49.8923L36.7542 49.2462Z" fill="#00D770"/>
<path d="M36.7542 49.2462C35.6287 48.1558 34.7337 46.8503 34.1226 45.4073C33.5114 43.9644 33.1965 42.4133 33.1965 40.8462C33.1965 39.2791 33.5114 37.728 34.1226 36.285C34.7337 34.842 35.6287 33.5366 36.7542 32.4462L46.8773 22.5385C47.9631 21.3605 49.2757 20.4142 50.7364 19.7563C52.1971 19.0983 53.7757 18.7424 55.3774 18.7098C56.9791 18.6772 58.5708 18.9687 60.057 19.5666C61.5433 20.1646 62.8933 21.0568 64.0261 22.1896C65.1589 23.3224 66.0511 24.6725 66.6491 26.1587C67.2471 27.6449 67.5385 29.2367 67.506 30.8384C67.4734 32.4401 67.1174 34.0187 66.4595 35.4793C65.8016 36.94 64.8552 38.2527 63.6773 39.3385L59.1542 43.8616C58.8834 44.1651 58.5516 44.408 58.1804 44.5743C57.8092 44.7406 57.4071 44.8266 57.0003 44.8266C56.5936 44.8266 56.1915 44.7406 55.8203 44.5743C55.4491 44.408 55.1172 44.1651 54.8465 43.8616C54.543 43.5908 54.3001 43.259 54.1338 42.8878C53.9675 42.5166 53.8815 42.1144 53.8815 41.7077C53.8815 41.301 53.9675 40.8988 54.1338 40.5276C54.3001 40.1565 54.543 39.8246 54.8465 39.5539L59.3696 35.0308C59.9494 34.5033 60.4161 33.8636 60.7415 33.1505C61.0669 32.4373 61.2443 31.6656 61.2627 30.8819C61.2812 30.0983 61.1405 29.319 60.8491 28.5913C60.5577 27.8636 60.1217 27.2026 59.5674 26.6484C59.0131 26.0941 58.3521 25.658 57.6244 25.3666C56.8967 25.0752 56.1175 24.9345 55.3338 24.953C54.5502 24.9715 53.7784 25.1488 53.0653 25.4742C52.3522 25.7996 51.7125 26.2664 51.185 26.8462L41.2773 36.7539C40.2385 37.8633 39.6606 39.3263 39.6606 40.8462C39.6606 42.366 40.2385 43.829 41.2773 44.9385C41.4927 45.1539 41.4927 45.1539 41.708 45.1539C42.0286 45.4307 42.2896 45.7698 42.475 46.1507C42.6604 46.5315 42.7664 46.9461 42.7866 47.3692C42.8067 47.7923 42.7406 48.215 42.5922 48.6118C42.4438 49.0085 42.2163 49.3709 41.9234 49.6769C41.6486 49.9684 41.3135 50.1965 40.9415 50.3453C40.5696 50.4941 40.1696 50.56 39.7696 50.5385C39.0014 50.5558 38.2475 50.3296 37.6157 49.8923L36.7542 49.2462ZM36.7542 49.2462L37.4003 49.8923" stroke="black" stroke-width="0.75" stroke-linejoin="round"/>
<path d="M49.2465 36.5384C50.372 37.6287 51.2669 38.9342 51.8781 40.3772C52.4892 41.8202 52.8042 43.3713 52.8042 44.9384C52.8042 46.5054 52.4892 48.0565 51.8781 49.4995C51.2669 50.9425 50.372 52.248 49.2465 53.3384L39.1234 63.246C36.8665 65.3264 33.8924 66.4533 30.8235 66.3909C27.7546 66.3285 24.8288 65.0816 22.6584 62.9111C20.4879 60.7406 19.241 57.8148 19.1785 54.746C19.1161 51.6771 20.243 48.703 22.3234 46.446L26.8465 41.923C27.1172 41.6194 27.4491 41.3765 27.8203 41.2102C28.1914 41.0439 28.5936 40.958 29.0003 40.958C29.4071 40.958 29.8092 41.0439 30.1804 41.2102C30.5516 41.3765 30.8834 41.6194 31.1542 41.923C31.4577 42.1937 31.7006 42.5256 31.8669 42.8967C32.0332 43.2679 32.1192 43.6701 32.1192 44.0768C32.1192 44.4836 32.0332 44.8857 31.8669 45.2569C31.7006 45.6281 31.4577 45.9599 31.1542 46.2307L26.6311 50.7537C25.6288 51.8553 25.0893 53.3006 25.1244 54.7895C25.1596 56.2784 25.7667 57.6966 26.8198 58.7497C27.8729 59.8028 29.2911 60.4099 30.78 60.445C32.2689 60.4802 33.7141 59.9406 34.8157 58.9384L44.7234 49.0307C45.7622 47.9212 46.3401 46.4582 46.3401 44.9384C46.3401 43.4185 45.7622 41.9555 44.7234 40.846C44.508 40.6307 44.508 40.6307 44.2926 40.6307C43.972 40.3538 43.7111 40.0147 43.5257 39.6339C43.3403 39.253 43.2343 38.8384 43.2141 38.4154C43.194 37.9923 43.2601 37.5695 43.4085 37.1728C43.5569 36.776 43.7844 36.4136 44.0773 36.1076C44.3521 35.8161 44.6872 35.588 45.0592 35.4392C45.4311 35.2905 45.8311 35.2245 46.2311 35.246C46.9992 35.2287 47.7532 35.4549 48.3849 35.8922L49.2465 36.5384Z" fill="#00D770"/>
<path d="M49.2465 36.5384C50.372 37.6287 51.2669 38.9342 51.8781 40.3772C52.4892 41.8202 52.8042 43.3713 52.8042 44.9384C52.8042 46.5054 52.4892 48.0565 51.8781 49.4995C51.2669 50.9425 50.372 52.248 49.2465 53.3384L39.1234 63.246C36.8665 65.3264 33.8924 66.4533 30.8235 66.3909C27.7546 66.3285 24.8288 65.0816 22.6584 62.9111C20.4879 60.7406 19.241 57.8148 19.1785 54.746C19.1161 51.6771 20.243 48.703 22.3234 46.446L26.8465 41.923C27.1172 41.6194 27.4491 41.3765 27.8203 41.2102C28.1914 41.0439 28.5936 40.958 29.0003 40.958C29.4071 40.958 29.8092 41.0439 30.1804 41.2102C30.5516 41.3765 30.8834 41.6194 31.1542 41.923C31.4577 42.1937 31.7006 42.5256 31.8669 42.8967C32.0332 43.2679 32.1192 43.6701 32.1192 44.0768C32.1192 44.4836 32.0332 44.8857 31.8669 45.2569C31.7006 45.6281 31.4577 45.9599 31.1542 46.2307L26.6311 50.7537C25.6288 51.8553 25.0893 53.3006 25.1244 54.7895C25.1596 56.2784 25.7667 57.6966 26.8198 58.7497C27.8729 59.8028 29.2911 60.4099 30.78 60.445C32.2689 60.4802 33.7141 59.9406 34.8157 58.9384L44.7234 49.0307C45.7622 47.9212 46.3401 46.4582 46.3401 44.9384C46.3401 43.4185 45.7622 41.9555 44.7234 40.846C44.508 40.6307 44.508 40.6307 44.2926 40.6307C43.972 40.3538 43.7111 40.0147 43.5257 39.6339C43.3403 39.253 43.2343 38.8384 43.2141 38.4154C43.194 37.9923 43.2601 37.5695 43.4085 37.1728C43.5569 36.776 43.7844 36.4136 44.0773 36.1076C44.3521 35.8161 44.6872 35.588 45.0592 35.4392C45.4311 35.2905 45.8311 35.2245 46.2311 35.246C46.9992 35.2287 47.7532 35.4549 48.3849 35.8922L49.2465 36.5384ZM49.2465 36.5384L48.6003 35.8922" stroke="black" stroke-width="0.75" stroke-linejoin="round"/>
</svg>
