<svg width="30" height="8" viewBox="0 0 30 8" fill="none" xmlns="http://www.w3.org/2000/svg">
<path fill-rule="evenodd" clip-rule="evenodd" d="M14.2515 0.363416C14.2179 0.309924 14.2938 0.255437 14.3462 0.295475L19.0663 3.90561C19.1377 3.96018 19.1377 4.05796 19.0663 4.11252L14.3659 7.70754C14.3129 7.74807 14.2365 7.69187 14.272 7.63846L16.6097 4.11797L14.2515 0.363416Z" fill="#8AFF61"/>
<path opacity="0.8" fill-rule="evenodd" clip-rule="evenodd" d="M24.9267 0.363416C24.8931 0.309924 24.969 0.255437 25.0213 0.295475L29.7415 3.90561C29.8128 3.96018 29.8128 4.05796 29.7415 4.11252L25.0411 7.70754C24.9881 7.74807 24.9117 7.69187 24.9472 7.63846L27.2849 4.11797L24.9267 0.363416Z" fill="#8AFF61"/>
<path opacity="0.8" fill-rule="evenodd" clip-rule="evenodd" d="M4.26504 0.363416C4.23144 0.309924 4.30736 0.255437 4.35971 0.295475L9.07987 3.90561C9.15121 3.96018 9.15121 4.05796 9.07987 4.11252L4.37948 7.70754C4.32649 7.74807 4.25007 7.69187 4.28554 7.63846L6.62327 4.11797L4.26504 0.363416Z" fill="#8AFF61"/>
</svg>
